<svg width="319" height="305" viewBox="0 0 319 305" fill="none" xmlns="http://www.w3.org/2000/svg">
<circle cx="159" cy="145" r="143.5" stroke="#CEB388" stroke-width="3"/>
<path d="M78.2534 131H82.3934V112.1H97.8734V108.38H82.3934V92.54H100.393V88.82H78.2534V131ZM102.421 122.9C102.421 128.72 107.521 131.72 112.621 131.72C117.481 131.72 121.261 128.6 122.821 124.94H122.941C122.941 124.94 122.761 125.96 122.761 127.46V131H126.661V111.68C126.661 104.12 122.641 100.1 115.381 100.1C111.361 100.1 107.101 101.48 104.701 103.52L106.561 106.64C109.021 104.84 112.081 103.76 115.141 103.76C119.401 103.76 122.581 105.74 122.581 111.56V112.4H120.781C115.021 112.4 102.421 113 102.421 122.9ZM106.561 122.54C106.561 115.82 116.161 115.64 120.841 115.64H122.581V117.02C122.581 122.3 119.161 128.3 113.341 128.3C108.841 128.3 106.561 125.36 106.561 122.54ZM136.057 131H140.137V116.42C140.137 110.3 144.337 103.88 150.457 103.88C156.157 103.88 156.817 108.26 156.817 112.82V131H160.897V116.42C160.897 110.18 164.977 103.88 171.037 103.88C176.497 103.88 177.517 107.84 177.517 112.82V131H181.597V111.8C181.597 104.36 178.897 100.1 171.577 100.1C166.537 100.1 162.157 103.82 160.477 107.66H160.357C159.517 102.74 156.637 100.1 151.057 100.1C146.317 100.1 141.457 103.88 139.957 107.96H139.837C139.837 107.96 140.077 106.88 140.077 105.56V100.82H136.057V131ZM190.838 93.92H195.278V88.82H190.838V93.92ZM191.018 131H195.098V100.82H191.018V131ZM204.846 123.86C204.846 130.46 209.346 131.24 211.806 131.24C212.466 131.24 212.946 131.18 213.306 131.12V127.46C212.946 127.52 212.586 127.52 212.346 127.52C210.786 127.52 208.926 126.92 208.926 122.96V88.82H204.846V123.86ZM216.925 138.56L215.365 141.8C215.365 141.8 217.585 143.6 220.705 143.6C224.725 143.6 227.785 141.14 229.345 137.3L244.225 100.82H239.845L231.145 122.84C230.545 124.34 230.125 126.02 230.125 126.02H230.005C230.005 126.02 229.465 124.34 228.865 122.84L220.045 100.82H215.545L228.085 130.7L226.285 135.02C225.085 137.78 223.165 139.94 220.525 139.94C218.605 139.94 216.925 138.56 216.925 138.56ZM95.7961 178.88C95.7961 191.42 104.916 200.72 116.496 200.72C122.076 200.72 127.236 198.32 130.236 195.02H130.356C130.356 195.02 130.296 195.92 130.296 196.82V200H134.076V179.84H122.976V183.56H130.176V190.7C126.876 194.42 121.956 196.82 116.916 196.82C107.256 196.82 100.116 189.2 100.116 178.82C100.116 168.86 107.016 161 117.276 161C121.776 161 126.876 162.74 129.816 165.2L132.096 162.02C127.956 158.66 122.376 157.1 117.096 157.1C104.976 157.1 95.7961 166.7 95.7961 178.88ZM140.785 184.76C140.785 193.88 147.865 200.72 156.685 200.72C165.505 200.72 172.645 193.88 172.645 184.76C172.645 175.82 165.505 169.1 156.685 169.1C147.865 169.1 140.785 175.82 140.785 184.76ZM144.985 184.76C144.985 177.92 150.205 172.76 156.685 172.76C163.165 172.76 168.445 177.92 168.445 184.76C168.445 191.84 163.165 197 156.685 197C150.205 197 144.985 191.84 144.985 184.76ZM180.266 192.86C180.266 199.46 184.766 200.24 187.226 200.24C187.886 200.24 188.366 200.18 188.726 200.12V196.46C188.366 196.52 188.006 196.52 187.766 196.52C186.206 196.52 184.346 195.92 184.346 191.96V157.82H180.266V192.86ZM193.112 184.88C193.112 194.24 198.212 200.72 206.252 200.72C211.472 200.72 215.072 197.84 216.752 194.42H216.872C216.872 194.42 216.692 195.26 216.692 196.58V200H220.652V157.82H216.572V172.76C216.572 174.02 216.752 175.04 216.752 175.04H216.632C214.772 171.38 210.932 169.1 206.732 169.1C198.752 169.1 193.112 175.34 193.112 184.88ZM197.312 184.88C197.312 177.2 201.752 172.82 207.092 172.82C213.512 172.82 216.632 178.76 216.632 184.82C216.632 193.46 211.952 197.06 206.912 197.06C201.272 197.06 197.312 192.32 197.312 184.88Z" fill="#CEB388" fill-opacity="0.6"/>
<circle cx="226.5" cy="17.5" r="16" fill="white" stroke="#CEB388" stroke-width="3"/>
<circle cx="301.5" cy="123.5" r="16" fill="white" stroke="#CEB388" stroke-width="3"/>
<circle cx="270.5" cy="234.5" r="16" fill="white" stroke="#CEB388" stroke-width="3"/>
<circle cx="45.5" cy="232.5" r="16" fill="white" stroke="#CEB388" stroke-width="3"/>
<circle cx="158.5" cy="287.5" r="16" fill="white" stroke="#CEB388" stroke-width="3"/>
<circle cx="17.5" cy="123.5" r="16" fill="white" stroke="#CEB388" stroke-width="3"/>
<circle cx="92.5" cy="17.5" r="16" fill="white" stroke="#CEB388" stroke-width="3"/>
</svg>
