<svg width="551" height="605" viewBox="0 0 551 605" fill="none" xmlns="http://www.w3.org/2000/svg">
<path d="M145.985 390.515L145.985 390.513C145.727 333.321 166.889 278.339 204.86 237.527C242.829 196.719 294.531 173.379 348.72 172.575C396.156 174.018 441.801 191.882 478.632 223.373C413.425 198.074 355.829 201.402 314.193 224.948C271.971 248.826 246.245 293.45 245.641 349.869C245.038 398.093 257.946 433.594 278.727 457.077C299.511 480.563 328.127 491.98 358.836 492.107C389.608 492.235 421.698 473.4 444.718 448.897C456.234 436.637 465.504 422.936 471.216 409.435C476.925 395.939 479.097 382.602 476.355 371.096C471.508 349.757 459.977 336.338 444.977 330.274C429.996 324.218 411.642 325.535 393.195 333.477C357.018 349.054 320.337 390.165 307.547 451.756C304.082 396.8 314.932 355.206 334.902 325.388C355.32 294.901 385.303 276.679 419.388 269.083L419.39 269.083C464.674 258.847 496.818 277.721 517.976 304.907C539.153 332.116 549.297 367.63 550.5 390.529C550.496 447.121 529.181 501.389 491.251 541.399C453.318 581.41 401.875 603.883 348.242 603.883C294.609 603.883 243.167 581.41 205.234 541.399C167.301 501.386 145.985 447.112 145.985 390.515Z" stroke="#CEB388" stroke-opacity="0.3"/>
<mask id="path-2-inside-1" fill="white">
<path fill-rule="evenodd" clip-rule="evenodd" d="M199.567 565.348C140.215 486.425 125.897 443.928 130.285 375.69C137.906 265.684 207.65 187.489 316.654 164.905C252.914 164.905 181.092 158.834 111.347 239.7C136.289 98.3667 235.363 68.7402 314.807 74.0827C341.821 73.5098 368.17 82.9164 389.269 100.665C410.368 118.413 424.879 143.38 430.278 171.219C445.058 98.3667 384.089 23.5719 309.033 7.78732C258.384 -4.16166 205.654 -2.09768 155.989 13.7778C106.325 29.6533 61.4236 58.7979 25.668 98.3667C-19.9835 147.533 -47.2113 212.384 -51.0045 280.982C-56.5276 346.408 -38.9333 411.68 -1.58306 464.327C-26.5247 332.465 9.73308 227.072 78.3227 174.861C44.3071 223.889 28.9827 284.533 35.3676 344.849C39.6417 394.469 57.3925 441.751 86.5048 481.06C115.617 520.37 154.863 550.049 199.567 566.562"/>
</mask>
<path d="M130.285 375.69L129.287 375.621L129.287 375.626L130.285 375.69ZM316.654 164.905L316.857 165.884L316.654 163.905V164.905ZM111.347 239.7L110.363 239.526L109.731 243.105L112.105 240.353L111.347 239.7ZM314.807 74.0827L314.74 75.0804L314.784 75.0834L314.828 75.0825L314.807 74.0827ZM430.278 171.219L429.296 171.409L431.258 171.418L430.278 171.219ZM309.033 7.78732L308.804 8.7606L308.816 8.7634L308.827 8.76591L309.033 7.78732ZM25.668 98.3667L26.4009 99.0472L26.41 99.0371L25.668 98.3667ZM-51.0045 280.982L-50.0081 281.067L-50.0069 281.052L-50.0061 281.038L-51.0045 280.982ZM-1.58306 464.327L-2.39865 464.905L-0.600479 464.141L-1.58306 464.327ZM78.3227 174.861L79.1443 175.431L77.717 174.066L78.3227 174.861ZM35.3676 344.849L36.3639 344.764L36.3631 344.754L36.362 344.744L35.3676 344.849ZM200.366 564.747C170.711 525.314 152.364 495.053 141.964 466.174C131.573 437.318 129.095 409.78 131.282 375.754L129.287 375.626C127.087 409.839 129.573 437.668 140.082 466.851C150.583 496.01 169.071 526.46 198.768 565.949L200.366 564.747ZM131.282 375.759C138.871 266.212 208.28 188.38 316.857 165.884L316.451 163.926C207.02 186.598 136.94 265.155 129.287 375.621L131.282 375.759ZM316.654 163.905C284.846 163.905 250.802 162.38 216.012 171.007C181.168 179.648 145.597 198.458 110.59 239.047L112.105 240.353C146.842 200.076 182.054 181.489 216.493 172.948C250.986 164.395 284.723 165.905 316.654 165.905V163.905ZM112.332 239.873C124.762 169.437 155.633 126.96 193.181 102.728C230.76 78.4763 275.153 72.4183 314.74 75.0804L314.874 73.0849C275.017 70.4046 230.151 76.4886 192.097 101.048C154.011 125.627 122.874 168.629 110.363 239.526L112.332 239.873ZM314.828 75.0825C341.594 74.5149 367.708 83.8344 388.625 101.43L389.913 99.8997C368.632 81.9983 342.048 72.5048 314.786 73.0829L314.828 75.0825ZM388.625 101.43C409.543 119.027 423.94 143.788 429.296 171.409L431.259 171.028C425.819 142.972 411.192 117.8 389.913 99.8997L388.625 101.43ZM431.258 171.418C438.717 134.651 427.051 97.452 404.138 67.4952C381.226 37.5398 347.017 14.7536 309.239 6.80873L308.827 8.76591C346.106 16.6057 379.909 39.1091 402.55 68.7103C425.19 98.31 436.619 134.934 429.298 171.02L431.258 171.418ZM309.263 6.81404C258.437 -5.1767 205.522 -3.10533 155.685 12.8253L156.294 14.7303C205.786 -1.09002 258.331 -3.14663 308.804 8.7606L309.263 6.81404ZM155.685 12.8253C105.848 28.7558 60.7972 57.9996 24.9261 97.6962L26.41 99.0371C62.0501 59.5962 106.802 30.5508 156.294 14.7303L155.685 12.8253ZM24.9352 97.6863C-20.8792 147.028 -48.1972 212.102 -52.003 280.927L-50.0061 281.038C-46.2254 212.666 -19.0877 148.038 26.4009 99.0471L24.9352 97.6863ZM-52.001 280.898C-57.5436 346.555 -39.8881 412.062 -2.39865 464.905L-0.76746 463.748C-37.9785 411.297 -55.5117 346.261 -50.0081 281.067L-52.001 280.898ZM-0.600479 464.141C-25.4967 332.519 10.7339 227.567 78.9284 175.657L77.717 174.066C8.73227 226.577 -27.5528 332.41 -2.56563 464.513L-0.600479 464.141ZM77.5011 174.291C43.3463 223.52 27.9634 284.404 34.3731 344.955L36.362 344.744C30.0019 284.662 45.2679 224.259 79.1443 175.431L77.5011 174.291ZM34.3713 344.935C38.661 394.736 56.4767 442.195 85.7012 481.655L87.3084 480.465C58.3083 441.307 40.6225 394.203 36.3639 344.764L34.3713 344.935ZM85.7012 481.655C114.926 521.117 154.329 550.918 199.22 567.501L199.913 565.624C155.397 549.18 116.308 519.623 87.3084 480.465L85.7012 481.655Z" fill="#CEB388" fill-opacity="0.3" mask="url(#path-2-inside-1)"/>
</svg>
