<svg width="94" height="94" viewBox="0 0 94 94" fill="none" xmlns="http://www.w3.org/2000/svg">
<circle cx="47" cy="47" r="46.5" stroke="#CEB388"/>
<path fill-rule="evenodd" clip-rule="evenodd" d="M75 30.1671C73.8454 54.4714 61.3368 66.5278 37.2818 66.3365C36.3196 68.6329 35.9347 71.1208 36.3196 73.8C34.9725 73.6086 34.3952 73.4173 34.3952 73.4173C33.2406 62.1263 44.5945 55.4282 53.8316 51.4094C43.2474 55.0455 36.7045 59.8298 34.0103 65.571C33.8179 35.7169 61.7216 46.8165 75 30.1671ZM19 25C31.701 29.0188 38.6289 36.0996 39.9759 46.051C37.2818 48.3475 34.9725 51.218 33.8179 55.4282C32.4708 52.749 31.3162 49.1129 30.7388 44.9027C31.1237 49.6871 32.0859 53.7059 33.433 56.7678C33.0481 58.1074 32.8557 59.2557 32.8557 60.7867C16.8832 53.7059 28.0447 37.0565 19 25Z" fill="#CEB388"/>
</svg>
