<svg width="79" height="99" viewBox="0 0 79 99" fill="none" xmlns="http://www.w3.org/2000/svg">
<path d="M20.3568 11.2417C29.4157 11.2417 36.7627 18.6041 36.7627 27.6868C36.7627 47.5668 20.0036 67.9592 5.73545 67.9592C13.5691 60.1057 18.727 51.3185 19.7911 44.1065C10.9945 43.8064 3.95005 36.5794 3.95005 27.6868C3.95005 18.6041 11.2955 11.2417 20.3568 11.2417Z" fill="#CEB388"/>
<path d="M44.0226 67.9591C51.8562 60.1057 57.0141 51.3184 58.0782 44.1065C49.2832 43.8063 42.2387 36.5801 42.2387 27.6883C42.2387 18.6057 49.5849 11.2432 58.6447 11.2432C67.7044 11.2416 75.0498 18.6041 75.0498 27.6867C75.0498 47.5667 58.2907 67.9591 44.0226 67.9591Z" fill="#CEB388"/>
</svg>
