<svg width="86" height="86" viewBox="0 0 86 86" fill="none" xmlns="http://www.w3.org/2000/svg">
<path d="M38.1412 57.1758L38.1407 57.1762C37.1394 57.8656 35.7417 57.1255 35.7417 55.9271V31.2999C35.7417 30.1015 37.1394 29.3614 38.1407 30.0508L38.1412 30.0512L56.0773 42.3636C56.0776 42.3638 56.0778 42.3639 56.0781 42.3641C56.9473 42.9671 56.9473 44.2598 56.0781 44.8629C56.0778 44.863 56.0776 44.8632 56.0773 44.8634L38.1412 57.1758Z" fill="white" stroke="white"/>
<path d="M71.798 44.0352C71.798 48.9886 70.5081 53.8592 68.0518 58.1816C65.5954 62.504 62.0545 66.1337 57.7675 68.7239C53.4806 71.3141 48.5908 72.7781 43.5654 72.9762C38.5401 73.1743 33.5471 72.0997 29.0637 69.8552C24.5803 67.6107 20.7563 64.2713 17.957 60.156C15.1578 56.0408 13.4769 51.2873 13.075 46.3497C12.6731 41.4122 13.5636 36.4556 15.6615 31.9537C17.7593 27.4518 20.9944 23.555 25.0574 20.6357" stroke="white"/>
<path d="M42.9344 85C51.5975 85 60.0479 82.3128 67.1244 77.3076C74.2008 72.3024 79.5558 65.225 82.4534 57.0481C85.3511 48.8712 85.649 39.9961 83.3064 31.6427C80.9638 23.2893 76.0956 15.8676 69.3709 10.3976C62.6462 4.92757 54.3951 1.67779 45.7515 1.09489C37.108 0.511981 28.4964 2.62456 21.1002 7.14228C13.704 11.66 7.88639 18.3611 4.44684 26.3246C1.0073 34.288 0.114683 43.123 1.89168 51.6152" stroke="white"/>
</svg>
