<svg width="320" height="316" viewBox="0 0 320 316" fill="none" xmlns="http://www.w3.org/2000/svg">
<rect x="-1" width="321" height="316" fill="url(#paint0_linear)"/>
<path d="M153.877 171.313L153.877 171.313C152.778 172.07 151.245 171.258 151.245 169.943V143.515C151.245 142.2 152.778 141.388 153.877 142.145L153.877 142.145L173.125 155.358C173.125 155.358 173.125 155.358 173.126 155.358C174.079 156.02 174.079 157.438 173.126 158.1C173.125 158.1 173.125 158.1 173.125 158.1L153.877 171.313Z" fill="white" stroke="white"/>
<path d="M189.974 157.182C189.974 162.497 188.59 167.724 185.954 172.363C183.318 177.001 179.518 180.896 174.918 183.676C170.317 186.455 165.07 188.026 159.677 188.239C154.285 188.451 148.927 187.298 144.115 184.89C139.304 182.481 135.201 178.897 132.197 174.481C129.193 170.065 127.389 164.964 126.958 159.666C126.527 154.367 127.482 149.048 129.733 144.217C131.985 139.386 135.456 135.205 139.816 132.072" stroke="white"/>
<path d="M159 201.141C168.296 201.141 177.365 198.257 184.958 192.886C192.552 187.515 198.299 179.92 201.408 171.146C204.518 162.371 204.837 152.847 202.324 143.883C199.81 134.919 194.586 126.954 187.369 121.085C180.153 115.215 171.299 111.727 162.023 111.102C152.748 110.476 143.507 112.743 135.57 117.591C127.633 122.439 121.39 129.63 117.699 138.176C114.008 146.722 113.05 156.202 114.957 165.315" stroke="white"/>
<defs>
<linearGradient id="paint0_linear" x1="-1" y1="158.353" x2="320" y2="158.353" gradientUnits="userSpaceOnUse">
<stop stop-color="#DDC8A7"/>
<stop offset="1" stop-color="#98815C"/>
</linearGradient>
</defs>
</svg>
