<svg width="614" height="807" viewBox="0 0 614 807" fill="none" xmlns="http://www.w3.org/2000/svg">
<path d="M246.456 521.215L246.456 521.213C246.134 444.802 272.508 371.348 319.826 316.828C367.14 262.313 431.562 231.142 499.074 230.068C558.464 232.004 615.606 256.09 661.617 298.544C580.104 264.421 508.108 268.796 456.119 300.315C403.576 332.17 371.569 391.692 370.817 466.95C370.067 531.296 386.132 578.646 411.982 609.961C437.837 641.282 473.445 656.517 511.672 656.687C549.964 656.858 589.903 631.73 618.555 599.035C632.888 582.678 644.421 564.402 651.526 546.399C658.628 528.401 661.32 510.64 657.917 495.333C651.893 466.899 637.564 449.025 618.921 440.946C600.291 432.873 577.458 434.625 554.501 445.222C509.308 466.082 463.479 521.269 447.731 603.971C443.235 530.08 456.763 474.184 481.77 434.156C507.225 393.411 544.598 369.068 587.067 358.922L587.068 358.922C615.308 352.079 639.43 354.976 659.783 364.106C680.143 373.239 696.761 388.623 709.958 406.8C736.356 443.161 749.002 490.618 750.5 521.227C750.497 596.84 723.932 669.344 676.663 722.794C629.394 776.244 565.297 806.258 498.478 806.258C431.659 806.258 367.562 776.244 320.293 722.794C273.022 669.341 246.456 596.832 246.456 521.215Z" stroke="#CEB388" stroke-opacity="0.3"/>
<mask id="path-2-inside-1" fill="white">
<path fill-rule="evenodd" clip-rule="evenodd" d="M313.311 754.644C239.392 649.271 221.559 592.532 227.024 501.424C236.516 354.551 323.378 250.15 459.137 219.997C379.752 219.997 290.302 211.892 203.439 319.858C234.503 131.16 357.893 91.6042 456.836 98.7371C490.48 97.9723 523.297 110.531 549.574 134.228C575.851 157.925 593.924 191.259 600.647 228.427C619.055 131.16 543.123 31.2983 449.645 10.2237C386.564 -5.7298 320.892 -2.9741 259.038 18.2219C197.184 39.4178 141.262 78.3298 96.7308 131.16C39.8746 196.804 5.96405 283.388 1.23979 374.977C-5.63887 462.329 16.2738 549.475 62.7912 619.766C31.7279 443.712 76.8848 302.999 162.309 233.29C119.945 298.75 100.859 379.718 108.811 460.248C114.134 526.497 136.242 589.625 172.499 642.108C208.757 694.591 257.636 734.218 313.311 756.265"/>
</mask>
<path d="M227.024 501.424L226.026 501.36L226.026 501.365L227.024 501.424ZM459.137 219.997L459.353 220.973L459.137 218.997V219.997ZM203.439 319.858L202.452 319.696L201.835 323.448L204.218 320.485L203.439 319.858ZM456.836 98.7371L456.764 99.7345L456.811 99.7379L456.858 99.7369L456.836 98.7371ZM600.647 228.427L599.663 228.605L601.63 228.613L600.647 228.427ZM449.645 10.2237L449.4 11.1932L449.412 11.1964L449.425 11.1992L449.645 10.2237ZM96.7308 131.16L97.4868 131.814L97.4954 131.804L96.7308 131.16ZM1.23979 374.977L2.2367 375.055L2.23776 375.042L2.23846 375.028L1.23979 374.977ZM62.7912 619.766L61.9573 620.318L63.776 619.593L62.7912 619.766ZM162.309 233.29L163.149 233.834L161.677 232.516L162.309 233.29ZM108.811 460.248L109.808 460.168L109.807 460.159L109.806 460.15L108.811 460.248ZM314.13 754.07C277.191 701.413 254.317 660.977 241.347 622.366C228.384 583.777 225.295 546.951 228.023 501.484L226.026 501.365C223.288 547.005 226.384 584.103 239.451 623.003C252.511 661.882 275.512 702.502 312.493 755.218L314.13 754.07ZM228.022 501.489C237.487 355.029 324.057 251.024 459.353 220.973L458.92 219.021C322.699 249.277 235.545 354.072 226.026 501.36L228.022 501.489ZM459.137 218.997C419.51 218.997 377.137 216.962 333.835 228.474C290.477 240.001 246.218 265.09 202.66 319.232L204.218 320.485C247.522 266.66 291.421 241.819 334.349 230.407C377.334 218.979 419.379 220.997 459.137 220.997V218.997ZM204.426 320.021C219.923 225.881 258.42 169.083 305.252 136.683C352.106 104.267 407.441 96.1787 456.764 99.7345L456.907 97.7397C407.288 94.1626 351.456 102.285 304.114 135.038C256.748 167.808 218.019 225.137 202.452 319.696L204.426 320.021ZM456.858 99.7369C490.233 98.9782 522.806 111.435 548.904 134.971L550.243 133.485C523.788 109.627 490.726 96.9664 456.813 97.7374L456.858 99.7369ZM548.904 134.971C575.005 158.509 592.977 191.639 599.663 228.605L601.631 228.249C594.871 190.879 576.696 157.341 550.243 133.485L548.904 134.971ZM601.63 228.613C620.151 130.747 543.797 30.4252 449.865 9.24822L449.425 11.1992C542.448 32.1715 617.959 131.572 599.665 228.241L601.63 228.613ZM449.89 9.25426C386.62 -6.74708 320.75 -3.98265 258.714 17.2759L259.362 19.1679C321.034 -1.96555 386.508 -4.71252 449.4 11.1932L449.89 9.25426ZM258.714 17.2759C196.679 38.5339 140.608 77.555 95.9662 130.515L97.4954 131.804C141.917 79.1047 197.69 40.3017 259.362 19.1679L258.714 17.2759ZM95.9749 130.505C38.9644 196.328 4.97617 283.127 0.241114 374.925L2.23846 375.028C6.95194 283.648 40.7849 197.28 97.4867 131.814L95.9749 130.505ZM0.242872 374.898C-6.65255 462.463 15.3116 549.833 61.9573 620.318L63.6252 619.215C17.236 549.117 -4.62519 462.194 2.2367 375.055L0.242872 374.898ZM63.776 619.593C32.7502 443.751 77.895 303.465 162.941 234.065L161.677 232.516C75.8745 302.533 30.7055 443.673 61.8064 619.94L63.776 619.593ZM161.469 232.747C118.977 298.404 99.8425 379.6 107.816 460.346L109.806 460.15C101.876 379.835 120.912 299.095 163.149 233.834L161.469 232.747ZM107.814 460.328C113.151 526.745 135.315 590.042 171.677 642.677L173.322 641.54C137.169 589.207 115.118 526.25 109.808 460.168L107.814 460.328ZM171.677 642.677C208.039 695.312 257.071 735.07 312.943 757.195L313.68 755.335C258.2 733.366 209.475 693.872 173.322 641.54L171.677 642.677Z" fill="#CEB388" fill-opacity="0.3" mask="url(#path-2-inside-1)"/>
</svg>
