<svg width="34" height="34" viewBox="0 0 34 34" fill="none" xmlns="http://www.w3.org/2000/svg">
<path d="M20.7401 24.7548C20.74 24.7548 20.74 24.7548 20.74 24.7548C20.2405 24.7548 19.1947 24.6744 17.8025 24.1358C16.1006 23.4774 14.42 22.3517 12.8074 20.79C9.5935 17.6777 8.4129 15.3631 8.73234 12.8008C8.88267 11.5153 9.452 10.8725 10.2398 10.1049C10.5465 9.80785 10.9503 9.64465 11.3776 9.64465C11.7877 9.64465 12.1704 9.7967 12.4556 10.0728L14.757 12.3016C15.3584 12.886 15.3444 13.848 14.7263 14.4466L14.0678 15.0834C13.889 15.2564 13.8537 15.5249 13.9819 15.7366C14.4991 16.5902 14.9686 17.2636 15.7099 17.9827C16.3633 18.6155 17.0349 19.1018 18.0275 19.661C18.1121 19.7087 18.2085 19.7339 18.3062 19.7338C18.4545 19.7338 18.5939 19.678 18.6987 19.5767L19.3611 18.9362C19.6664 18.6404 20.0701 18.4774 20.4976 18.4774C20.9072 18.4774 21.29 18.6291 21.5754 18.9045L23.8773 21.1338C24.478 21.7176 24.4642 22.6802 23.847 23.28C23.8459 23.281 23.8448 23.2821 23.8437 23.2831C23.0183 24.0653 22.3786 24.5893 21.0597 24.7411C21.0583 24.7412 21.0569 24.7414 21.0555 24.7415C21.0172 24.7456 20.9101 24.7548 20.7401 24.7548ZM11.3776 10.3634C11.1486 10.3634 10.9311 10.4518 10.7654 10.6123C9.9457 11.4109 9.58422 11.9034 9.46948 12.8843C9.18047 15.2026 10.2996 17.3451 13.3322 20.2817C16.9292 23.7652 19.9116 24.036 20.74 24.036C20.74 24.036 20.7401 24.036 20.7401 24.036C20.8768 24.036 20.956 24.0289 20.9744 24.0271C22.0235 23.9058 22.5184 23.5331 23.3227 22.7712C23.6506 22.4511 23.6639 21.9448 23.352 21.6416L21.0509 19.4132C20.9061 19.2734 20.7094 19.1962 20.4975 19.1962C20.2683 19.1962 20.051 19.2844 19.8856 19.4446L19.2231 20.0853C18.9782 20.3221 18.6525 20.4526 18.3061 20.4526C18.0775 20.4526 17.8521 20.3937 17.6543 20.2823C16.922 19.8697 16.0559 19.3343 15.1848 18.4907C14.3875 17.7173 13.8885 17.0027 13.3417 16.1003C13.0424 15.6063 13.1253 14.979 13.5433 14.5748L14.2017 13.9382C14.5306 13.6196 14.5442 13.1131 14.2318 12.8094L11.9307 10.581C11.7858 10.4407 11.5894 10.3634 11.3776 10.3634Z" fill="black"/>
<circle cx="17" cy="17" r="16.5" stroke="#150A01"/>
</svg>
