<svg width="102" height="128" viewBox="0 0 102 128" fill="none" xmlns="http://www.w3.org/2000/svg">
<path d="M26.2835 14.5342C37.9798 14.5342 47.4658 24.0533 47.4658 35.7965C47.4658 61.4999 25.8275 87.8659 7.40532 87.8659C17.5196 77.7119 24.1792 66.3506 25.5532 57.0261C14.1955 56.638 5.10012 47.294 5.10012 35.7965C5.10012 24.0533 14.5841 14.5342 26.2835 14.5342Z" fill="#CEB388"/>
<path d="M56.8394 87.8658C66.9537 77.7118 73.6133 66.3505 74.9872 57.026C63.6316 56.6379 54.5362 47.2949 54.5362 35.7985C54.5362 24.0552 64.0212 14.5361 75.7186 14.5361C87.4159 14.5341 96.8999 24.0532 96.8999 35.7964C96.8999 61.4998 75.2616 87.8658 56.8394 87.8658Z" fill="#CEB388"/>
</svg>
