<svg width="21" height="26" viewBox="0 0 21 26" fill="none" xmlns="http://www.w3.org/2000/svg">
<path d="M14.4375 5.1999H19.0312C19.2053 5.1999 19.3722 5.13142 19.4953 5.00952C19.6184 4.88762 19.6875 4.72229 19.6875 4.5499C19.6875 4.37751 19.6184 4.21218 19.4953 4.09028C19.3722 3.96838 19.2053 3.8999 19.0312 3.8999H14.4375C14.6115 3.8999 14.7785 3.96838 14.9015 4.09028C15.0246 4.21218 15.0938 4.37751 15.0938 4.5499C15.0938 4.72229 15.0246 4.88762 14.9015 5.00952C14.7785 5.13142 14.6115 5.1999 14.4375 5.1999Z" fill="#CEB388"/>
<path d="M1.3125 4.5499C1.3125 4.72229 1.38164 4.88762 1.50471 5.00952C1.62778 5.13142 1.7947 5.1999 1.96875 5.1999H14.4375C14.2635 5.1999 14.0965 5.13142 13.9735 5.00952C13.8504 4.88762 13.7812 4.72229 13.7812 4.5499C13.7812 4.37751 13.8504 4.21218 13.9735 4.09028C14.0965 3.96838 14.2635 3.8999 14.4375 3.8999H1.96875C1.7947 3.8999 1.62778 3.96838 1.50471 4.09028C1.38164 4.21218 1.3125 4.37751 1.3125 4.5499Z" fill="#CEB388"/>
<path d="M6.5625 11.05H19.0312C19.2053 11.05 19.3722 10.9815 19.4953 10.8596C19.6184 10.7377 19.6875 10.5724 19.6875 10.4C19.6875 10.2276 19.6184 10.0623 19.4953 9.94038C19.3722 9.81848 19.2053 9.75 19.0312 9.75H6.5625C6.73655 9.75 6.90347 9.81848 7.02654 9.94038C7.14961 10.0623 7.21875 10.2276 7.21875 10.4C7.21875 10.5724 7.14961 10.7377 7.02654 10.8596C6.90347 10.9815 6.73655 11.05 6.5625 11.05Z" fill="#CEB388"/>
<path d="M1.3125 10.4C1.3125 10.5724 1.38164 10.7377 1.50471 10.8596C1.62778 10.9815 1.7947 11.05 1.96875 11.05H6.5625C6.38845 11.05 6.22153 10.9815 6.09846 10.8596C5.97539 10.7377 5.90625 10.5724 5.90625 10.4C5.90625 10.2276 5.97539 10.0623 6.09846 9.94038C6.22153 9.81848 6.38845 9.75 6.5625 9.75H1.96875C1.7947 9.75 1.62778 9.81848 1.50471 9.94038C1.38164 10.0623 1.3125 10.2276 1.3125 10.4Z" fill="#CEB388"/>
<path d="M14.4375 16.9H19.0312C19.2053 16.9 19.3722 16.8315 19.4953 16.7096C19.6184 16.5877 19.6875 16.4224 19.6875 16.25C19.6875 16.0776 19.6184 15.9123 19.4953 15.7904C19.3722 15.6685 19.2053 15.6 19.0312 15.6H14.4375C14.6115 15.6 14.7785 15.6685 14.9015 15.7904C15.0246 15.9123 15.0938 16.0776 15.0938 16.25C15.0938 16.4224 15.0246 16.5877 14.9015 16.7096C14.7785 16.8315 14.6115 16.9 14.4375 16.9Z" fill="#CEB388"/>
<path d="M1.3125 16.25C1.3125 16.4224 1.38164 16.5877 1.50471 16.7096C1.62778 16.8315 1.7947 16.9 1.96875 16.9H14.4375C14.2635 16.9 14.0965 16.8315 13.9735 16.7096C13.8504 16.5877 13.7812 16.4224 13.7812 16.25C13.7812 16.0776 13.8504 15.9123 13.9735 15.7904C14.0965 15.6685 14.2635 15.6 14.4375 15.6H1.96875C1.7947 15.6 1.62778 15.6685 1.50471 15.7904C1.38164 15.9123 1.3125 16.0776 1.3125 16.25Z" fill="#CEB388"/>
<path d="M13.3022 15.6C13.462 15.3272 13.7164 15.1212 14.0181 15.0204C14.3198 14.9196 14.6482 14.9309 14.9422 15.0522C15.2361 15.1735 15.4755 15.3964 15.6158 15.6796C15.756 15.9627 15.7876 16.2867 15.7046 16.5911C15.6216 16.8956 15.4297 17.1598 15.1646 17.3345C14.8996 17.5093 14.5794 17.5826 14.2638 17.5408C13.9482 17.4991 13.6587 17.3451 13.4491 17.1076C13.2396 16.8702 13.1244 16.5653 13.125 16.25C13.1254 16.0216 13.1865 15.7975 13.3022 15.6ZM15.0938 16.25C15.0938 16.1214 15.0553 15.9957 14.9832 15.8888C14.911 15.7819 14.8086 15.6986 14.6886 15.6494C14.5687 15.6002 14.4368 15.5874 14.3095 15.6125C14.1822 15.6375 14.0652 15.6994 13.9735 15.7903C13.8817 15.8812 13.8192 15.9971 13.7939 16.1232C13.7685 16.2492 13.7815 16.3799 13.8312 16.4987C13.8809 16.6175 13.965 16.719 14.0729 16.7904C14.1808 16.8618 14.3077 16.9 14.4375 16.9C14.6115 16.9 14.7785 16.8315 14.9015 16.7096C15.0246 16.5877 15.0938 16.4224 15.0938 16.25Z" fill="#CEB388"/>
<path d="M12.5869 15.5999C12.7248 15.2234 12.9764 14.8982 13.3076 14.6683C13.6387 14.4385 14.0332 14.3152 14.4375 14.3152C14.8418 14.3152 15.2364 14.4385 15.5675 14.6683C15.8986 14.8982 16.1502 15.2234 16.2881 15.5999C16.4455 16.0192 16.4455 16.4806 16.2881 16.8999C16.1502 17.2763 15.8986 17.6016 15.5675 17.8314C15.2364 18.0613 14.8418 18.1846 14.4375 18.1846C14.0332 18.1846 13.6387 18.0613 13.3076 17.8314C12.9764 17.6016 12.7248 17.2763 12.5869 16.8999C12.4295 16.4806 12.4295 16.0192 12.5869 15.5999ZM13.7813 16.2499C13.7813 16.3785 13.8197 16.5041 13.8919 16.611C13.964 16.7179 14.0665 16.8012 14.1864 16.8504C14.3063 16.8996 14.4382 16.9125 14.5655 16.8874C14.6928 16.8623 14.8098 16.8004 14.9015 16.7095C14.9933 16.6186 15.0558 16.5028 15.0811 16.3767C15.1065 16.2506 15.0935 16.1199 15.0438 16.0012C14.9941 15.8824 14.91 15.7809 14.8021 15.7094C14.6942 15.638 14.5673 15.5999 14.4375 15.5999C14.2635 15.5999 14.0965 15.6684 13.9735 15.7903C13.8504 15.9122 13.7813 16.0775 13.7813 16.2499Z" fill="#CEB388"/>
<path d="M5.42719 9.74999C5.58696 9.47719 5.8414 9.27122 6.14312 9.17045C6.44483 9.06967 6.77324 9.08097 7.06717 9.20224C7.3611 9.32351 7.6005 9.54647 7.74077 9.82959C7.88104 10.1127 7.91262 10.4367 7.82962 10.7412C7.74663 11.0456 7.55471 11.3098 7.28963 11.4846C7.02456 11.6593 6.70439 11.7326 6.38878 11.6909C6.07318 11.6491 5.78365 11.4952 5.57415 11.2577C5.36464 11.0202 5.24944 10.7154 5.25 10.4C5.25041 10.1717 5.31152 9.94748 5.42719 9.74999ZM7.21875 10.4C7.21875 10.2714 7.18026 10.1458 7.10815 10.0389C7.03604 9.93198 6.93355 9.84866 6.81364 9.79947C6.69372 9.75027 6.56177 9.7374 6.43447 9.76248C6.30717 9.78756 6.19024 9.84947 6.09846 9.94037C6.00668 10.0313 5.94418 10.1471 5.91886 10.2732C5.89354 10.3993 5.90653 10.53 5.9562 10.6487C6.00587 10.7675 6.08999 10.869 6.19791 10.9404C6.30583 11.0119 6.43271 11.05 6.5625 11.05C6.73655 11.05 6.90347 10.9815 7.02654 10.8596C7.14961 10.7377 7.21875 10.5724 7.21875 10.4Z" fill="#CEB388"/>
<path d="M4.71188 9.74992C4.84983 9.37347 5.10145 9.04822 5.43255 8.81837C5.76365 8.58852 6.15818 8.46521 6.56251 8.46521C6.96683 8.46521 7.36136 8.58852 7.69246 8.81837C8.02356 9.04822 8.27518 9.37347 8.41313 9.74992C8.5705 10.1692 8.5705 10.6306 8.41313 11.0499C8.27518 11.4264 8.02356 11.7516 7.69246 11.9815C7.36136 12.2113 6.96683 12.3346 6.56251 12.3346C6.15818 12.3346 5.76365 12.2113 5.43255 11.9815C5.10145 11.7516 4.84983 11.4264 4.71188 11.0499C4.55451 10.6306 4.55451 10.1692 4.71188 9.74992ZM5.90626 10.3999C5.90626 10.5285 5.94474 10.6541 6.01685 10.761C6.08896 10.8679 6.19146 10.9512 6.31137 11.0004C6.43128 11.0496 6.56323 11.0625 6.69053 11.0374C6.81783 11.0124 6.93477 10.9504 7.02655 10.8595C7.11832 10.7686 7.18082 10.6528 7.20615 10.5267C7.23147 10.4006 7.21847 10.2699 7.1688 10.1512C7.11913 10.0324 7.03502 9.93089 6.9271 9.85947C6.81918 9.78804 6.6923 9.74992 6.56251 9.74992C6.38846 9.74992 6.22154 9.8184 6.09847 9.9403C5.9754 10.0622 5.90626 10.2275 5.90626 10.3999Z" fill="#CEB388"/>
<path d="M13.3022 3.90001C13.462 3.62721 13.7164 3.42124 14.0181 3.32047C14.3198 3.2197 14.6482 3.231 14.9422 3.35226C15.2361 3.47353 15.4755 3.69649 15.6158 3.97962C15.756 4.26274 15.7876 4.58671 15.7046 4.89119C15.6216 5.19566 15.4297 5.45986 15.1646 5.63459C14.8996 5.80931 14.5794 5.88262 14.2638 5.84088C13.9482 5.79914 13.6587 5.64519 13.4491 5.4077C13.2396 5.17021 13.1244 4.86539 13.125 4.55001C13.1254 4.32169 13.1865 4.09751 13.3022 3.90001ZM15.0938 4.55001C15.0938 4.42146 15.0553 4.29578 14.9832 4.18889C14.911 4.082 14.8086 3.99869 14.6886 3.94949C14.5687 3.90029 14.4368 3.88742 14.3095 3.9125C14.1822 3.93758 14.0652 3.99949 13.9735 4.09039C13.8817 4.1813 13.8192 4.29712 13.7939 4.4232C13.7685 4.54929 13.7815 4.67999 13.8312 4.79876C13.8809 4.91753 13.965 5.01905 14.0729 5.09047C14.1808 5.16189 14.3077 5.20001 14.4375 5.20001C14.6115 5.20001 14.7785 5.13153 14.9015 5.00963C15.0246 4.88773 15.0938 4.7224 15.0938 4.55001Z" fill="#CEB388"/>
<path d="M12.5869 3.89994C12.7248 3.5235 12.9764 3.19824 13.3076 2.96839C13.6387 2.73854 14.0332 2.61523 14.4375 2.61523C14.8418 2.61523 15.2364 2.73854 15.5675 2.96839C15.8986 3.19824 16.1502 3.5235 16.2881 3.89994C16.4455 4.31926 16.4455 4.78063 16.2881 5.19994C16.1502 5.57639 15.8986 5.90164 15.5675 6.1315C15.2364 6.36135 14.8418 6.48465 14.4375 6.48465C14.0332 6.48465 13.6387 6.36135 13.3076 6.1315C12.9764 5.90164 12.7248 5.57639 12.5869 5.19994C12.4295 4.78063 12.4295 4.31926 12.5869 3.89994ZM13.7813 4.54994C13.7813 4.6785 13.8197 4.80417 13.8919 4.91106C13.964 5.01796 14.0665 5.10127 14.1864 5.15047C14.3063 5.19966 14.4382 5.21253 14.5655 5.18745C14.6928 5.16237 14.8098 5.10047 14.9015 5.00956C14.9933 4.91866 15.0558 4.80284 15.0811 4.67675C15.1065 4.55067 15.0935 4.41997 15.0438 4.3012C14.9941 4.18243 14.91 4.08091 14.8021 4.00949C14.6942 3.93807 14.5673 3.89994 14.4375 3.89994C14.2635 3.89994 14.0965 3.96843 13.9735 4.09032C13.8504 4.21222 13.7813 4.37755 13.7813 4.54994Z" fill="#CEB388"/>
</svg>
