<svg width="26" height="26" viewBox="0 0 26 26" fill="none" xmlns="http://www.w3.org/2000/svg">
<path d="M14.2507 20.0557V20.5557H14.7507V20.0557H14.2507ZM14.2507 13.5271V13.0271H13.7507V13.5271H14.2507ZM11.5495 20.0557H11.0495V20.5557H11.5495V20.0557ZM11.5495 13.5274H12.0495V13.0274H11.5495V13.5274ZM10.2 13.5274H9.69995V14.0274H10.2V13.5274ZM10.2 11.2776V10.7776H9.69995V11.2776H10.2ZM11.5495 11.2776V11.7776H12.0495V11.2776H11.5495ZM16.279 7H16.779V6.5H16.279V7ZM16.279 9.25006V9.75006H16.779V9.25006H16.279ZM14.2538 10.1513L14.7538 10.1526V10.1513H14.2538ZM14.2507 11.2773L13.7507 11.2759L13.7494 11.7773H14.2507V11.2773ZM16.2917 11.2773L16.789 11.3301L16.8476 10.7773H16.2917V11.2773ZM16.0529 13.5271V14.0271H16.5027L16.5501 13.5799L16.0529 13.5271ZM1.5 13C1.5 6.64873 6.64873 1.5 13 1.5V0.5C6.09644 0.5 0.5 6.09644 0.5 13H1.5ZM13 24.5C6.64873 24.5 1.5 19.3513 1.5 13H0.5C0.5 19.9036 6.09644 25.5 13 25.5V24.5ZM24.5 13C24.5 19.3513 19.3513 24.5 13 24.5V25.5C19.9036 25.5 25.5 19.9036 25.5 13H24.5ZM13 1.5C19.3513 1.5 24.5 6.64873 24.5 13H25.5C25.5 6.09644 19.9036 0.5 13 0.5V1.5ZM14.7507 20.0557V13.5271H13.7507V20.0557H14.7507ZM11.5495 20.5557H14.2507V19.5557H11.5495V20.5557ZM11.0495 13.5274V20.0557H12.0495V13.5274H11.0495ZM10.2 14.0274H11.5495V13.0274H10.2V14.0274ZM9.69995 11.2776V13.5274H10.7V11.2776H9.69995ZM11.5495 10.7776H10.2V11.7776H11.5495V10.7776ZM11.0495 9.92678V11.2776H12.0495V9.92678H11.0495ZM14.4765 6.5C13.3164 6.5 12.4239 6.79316 11.8328 7.43697C11.2496 8.07225 11.0495 8.95314 11.0495 9.92678H12.0495C12.0495 9.06504 12.2304 8.48254 12.5694 8.11327C12.9006 7.75254 13.4717 7.5 14.4765 7.5V6.5ZM16.279 6.5H14.4765V7.5H16.279V6.5ZM16.779 9.25006V7H15.779V9.25006H16.779ZM15.1523 9.75006H16.279V8.75006H15.1523V9.75006ZM14.7538 10.1513C14.7538 10.0057 14.7579 9.91197 14.7691 9.84394C14.7796 9.77987 14.791 9.77577 14.7803 9.78936C14.747 9.83179 14.7566 9.75006 15.1523 9.75006V8.75006C14.7053 8.75006 14.2656 8.82553 13.9937 9.17187C13.8638 9.3374 13.8086 9.52193 13.7823 9.68185C13.7567 9.8378 13.7538 10.0035 13.7538 10.1513H14.7538ZM14.7507 11.2787L14.7538 10.1526L13.7538 10.1499L13.7507 11.2759L14.7507 11.2787ZM16.2917 10.7773H14.2507V11.7773H16.2917V10.7773ZM16.5501 13.5799L16.789 11.3301L15.7945 11.2245L15.5557 13.4743L16.5501 13.5799ZM14.2507 14.0271H16.0529V13.0271H14.2507V14.0271Z" fill="#CEB388"/>
</svg>
