<svg width="84" height="84" viewBox="0 0 84 84" fill="none" xmlns="http://www.w3.org/2000/svg">
<circle cx="42" cy="42" r="41" stroke="#CEB388" stroke-width="2"/>
<path d="M27.4091 21C26.6309 21.0001 26.0001 21.6268 26 22.4V61.6C26.0001 62.3732 26.6309 62.9999 27.4091 63H55.5909C56.3691 62.9999 56.9999 62.3732 57 61.6V22.4C56.9999 21.6268 56.3691 21.0001 55.5909 21H27.4091ZM41.5 33.6C44.207 33.6 46.4318 35.8105 46.4318 38.5C46.4318 41.1895 44.207 43.4 41.5 43.4C38.793 43.4 36.5682 41.1895 36.5682 38.5C36.5682 35.8105 38.793 33.6 41.5 33.6ZM36.0095 42.9215C36.4392 42.9146 36.8486 43.1028 37.1214 43.4328C38.1614 44.6942 39.728 45.5 41.5 45.5C43.272 45.5 44.8386 44.6942 45.8786 43.4328C46.3861 42.8182 47.3061 42.7462 47.9042 43.2742C49.886 45.0184 51.127 47.5758 51.127 50.4C51.1269 51.1732 50.496 51.7999 49.7179 51.8H33.2821C32.504 51.7999 31.8731 51.1732 31.873 50.4C31.873 47.5758 33.114 45.0184 35.0958 43.2742C35.3481 43.0518 35.6723 42.9266 36.0095 42.9215ZM33.0455 54.6H49.9545C51.8601 54.5732 51.8601 57.4268 49.9545 57.4H33.0455C31.1399 57.4268 31.1399 54.5732 33.0455 54.6Z" fill="#CEB388"/>
</svg>
