<svg width="33" height="33" viewBox="0 0 33 33" fill="none" xmlns="http://www.w3.org/2000/svg">
<path fill-rule="evenodd" clip-rule="evenodd" d="M0 16.5C0 7.3873 7.3873 0 16.5 0C25.6127 0 33 7.3873 33 16.5C33 25.6127 25.6127 33 16.5 33C7.3873 33 0 25.6127 0 16.5Z" fill="#CEB388"/>
<path d="M21.4984 11.0472V11.5472H21.9984V11.0472H21.4984ZM21.4984 11.0469V10.5469H20.9984V11.0469H21.4984ZM21.4984 10.5472C20.6395 10.5472 19.9424 11.2433 19.9424 12.1029H20.9424C20.9424 11.7961 21.1912 11.5472 21.4984 11.5472V10.5472ZM19.9424 12.1029C19.9424 12.962 20.6392 13.6589 21.4984 13.6589V12.6589C21.1915 12.6589 20.9424 12.4097 20.9424 12.1029H19.9424ZM21.4984 13.6589C22.3575 13.6589 23.0544 12.962 23.0544 12.1029H22.0544C22.0544 12.4097 21.8053 12.6589 21.4984 12.6589V13.6589ZM23.0544 12.1029C23.0544 11.2437 22.3575 10.5469 21.4984 10.5469V11.5469C21.8053 11.5469 22.0544 11.796 22.0544 12.1029H23.0544ZM20.9984 11.0469V11.0472H21.9984V11.0469H20.9984Z" fill="white"/>
<path fill-rule="evenodd" clip-rule="evenodd" d="M16.8008 8C14.4109 8 14.1109 8.01045 13.1723 8.05317C12.2354 8.09607 11.5959 8.24439 11.0364 8.462C10.4576 8.68677 9.96664 8.98744 9.4775 9.47677C8.98799 9.9659 8.68732 10.4569 8.46182 11.0355C8.24365 11.5952 8.09515 12.2349 8.05298 13.1713C8.011 14.11 8 14.4101 8 16.8001C8 19.19 8.01063 19.4891 8.05317 20.4277C8.09625 21.3646 8.24457 22.0041 8.462 22.5636C8.68696 23.1424 8.98763 23.6334 9.47695 24.1225C9.9659 24.612 10.4569 24.9134 11.0353 25.1382C11.5952 25.3558 12.2349 25.5041 13.1715 25.547C14.1102 25.5897 14.41 25.6002 16.7997 25.6002C19.1899 25.6002 19.4889 25.5897 20.4276 25.547C21.3644 25.5041 22.0046 25.3558 22.5645 25.1382C23.1431 24.9134 23.6334 24.612 24.1223 24.1225C24.6118 23.6334 24.9125 23.1424 25.138 22.5638C25.3543 22.0041 25.5028 21.3644 25.5468 20.4279C25.589 19.4893 25.6 19.19 25.6 16.8001C25.6 14.4101 25.589 14.1102 25.5468 13.1715C25.5028 12.2347 25.3543 11.5952 25.138 11.0357C24.9125 10.4569 24.6118 9.9659 24.1223 9.47677C23.6328 8.98726 23.1433 8.68659 22.564 8.462C22.003 8.24439 21.3631 8.09607 20.4263 8.05317C19.4876 8.01045 19.1888 8 16.7981 8L16.8008 8Z" stroke="white"/>
<path fill-rule="evenodd" clip-rule="evenodd" d="M16.801 13.8672C18.421 13.8672 19.7344 15.1804 19.7344 16.8006C19.7344 18.4205 18.421 19.7339 16.801 19.7339C15.1809 19.7339 13.8677 18.4205 13.8677 16.8006C13.8677 15.1804 15.1809 13.8672 16.801 13.8672V13.8672Z" stroke="white"/>
</svg>
