<svg width="26" height="26" viewBox="0 0 26 26" fill="none" xmlns="http://www.w3.org/2000/svg">
<path d="M10.3617 6.63898L10.339 6.1395L10.3389 6.1395L10.3617 6.63898ZM15.6374 6.63898L15.6603 6.1395L15.6601 6.1395L15.6374 6.63898ZM17.1921 6.93631L17.0112 7.40247L17.0113 7.40251L17.1921 6.93631ZM18.3254 7.67432L17.9719 8.02788L17.972 8.02801L18.3254 7.67432ZM19.0641 8.80807L19.5305 8.62776L19.53 8.62655L19.0641 8.80807ZM19.3614 10.3614L19.8609 10.339L19.8609 10.338L19.3614 10.3614ZM19.3614 15.6388L19.8609 15.6623L19.8609 15.6612L19.3614 15.6388ZM19.0641 17.1922L19.53 17.3737L19.5305 17.3724L19.0641 17.1922ZM18.3254 18.3258L17.972 17.9721L17.9717 17.9724L18.3254 18.3258ZM17.1925 19.0644L17.0114 18.5984L17.0113 18.5984L17.1925 19.0644ZM15.6383 19.3618L15.6611 19.8613L15.6612 19.8613L15.6383 19.3618ZM10.3612 19.3618L10.3383 19.8613L10.3385 19.8613L10.3612 19.3618ZM8.80759 19.0644L8.98872 18.5984L8.98869 18.5984L8.80759 19.0644ZM7.67424 18.3258L8.02799 17.9724L8.02773 17.9721L7.67424 18.3258ZM6.9361 17.192L6.47005 17.3731L6.47006 17.3731L6.9361 17.192ZM6.63876 15.6387L6.13928 15.6613L6.13929 15.6616L6.63876 15.6387ZM6.63863 10.3613L6.13914 10.3388L6.13913 10.3389L6.63863 10.3613ZM6.93597 8.80793L7.40183 8.98952L7.40184 8.9895L6.93597 8.80793ZM7.67464 7.67432L8.02806 8.02801L8.02826 8.02781L7.67464 7.67432ZM8.80839 6.93631L8.98939 7.4024L8.98962 7.40231L8.80839 6.93631ZM1.5 13C1.5 6.64873 6.64873 1.5 13 1.5V0.5C6.09644 0.5 0.5 6.09644 0.5 13H1.5ZM13 24.5C6.64873 24.5 1.5 19.3513 1.5 13H0.5C0.5 19.9036 6.09644 25.5 13 25.5V24.5ZM24.5 13C24.5 19.3513 19.3513 24.5 13 24.5V25.5C19.9036 25.5 25.5 19.9036 25.5 13H24.5ZM13 1.5C19.3513 1.5 24.5 6.64873 24.5 13H25.5C25.5 6.09644 19.9036 0.5 13 0.5V1.5ZM13.0007 6.10031C11.26 6.10031 11.033 6.10791 10.339 6.1395L10.3845 7.13846C11.0558 7.10791 11.2651 7.10031 13.0007 7.10031V6.10031ZM12.9987 7.10031H13.0007V6.10031H12.9987V7.10031ZM15.6601 6.1395C14.9661 6.10791 14.74 6.10031 12.9987 6.10031V7.10031C14.7348 7.10031 14.9433 7.10791 15.6147 7.13846L15.6601 6.1395ZM17.3729 6.47016C16.9083 6.28995 16.3888 6.17286 15.6603 6.1395L15.6145 7.13845C16.2487 7.16749 16.6598 7.26615 17.0112 7.40247L17.3729 6.47016ZM18.679 7.32077C18.2707 6.91247 17.8547 6.65692 17.3728 6.47012L17.0113 7.40251C17.3722 7.54238 17.6682 7.72417 17.9719 8.02788L18.679 7.32077ZM19.53 8.62655C19.3428 8.14609 19.0875 7.72904 18.6788 7.32064L17.972 8.02801C18.2753 8.33108 18.4574 8.62817 18.5982 8.98958L19.53 8.62655ZM19.8609 10.338C19.8267 9.60967 19.7095 9.09082 19.5305 8.62776L18.5977 8.98838C18.7334 9.33919 18.8322 9.75048 18.862 10.3849L19.8609 10.338ZM19.9001 13.0004C19.9001 11.2594 19.8921 11.0326 19.8609 10.339L18.8619 10.3839C18.8921 11.0555 18.9001 11.2651 18.9001 13.0004H19.9001ZM19.8609 15.6612C19.8921 14.9676 19.9001 14.7414 19.9001 13.0004H18.9001C18.9001 14.7357 18.8921 14.9447 18.8619 15.6164L19.8609 15.6612ZM19.5305 17.3724C19.7095 16.9093 19.8267 16.3903 19.8609 15.6623L18.862 15.6153C18.8322 16.2495 18.7334 16.6609 18.5977 17.0119L19.5305 17.3724ZM18.6788 18.6795C19.0875 18.2711 19.3428 17.854 19.53 17.3737L18.5982 17.0106C18.4574 17.3719 18.2753 17.669 17.972 17.9721L18.6788 18.6795ZM17.3735 19.5305C17.8548 19.3436 18.2713 19.0875 18.6792 18.6791L17.9717 17.9724C17.6684 18.2761 17.3718 18.4584 17.0114 18.5984L17.3735 19.5305ZM15.6612 19.8613C16.3896 19.8279 16.9096 19.7108 17.3736 19.5305L17.0113 18.5984C16.661 18.7346 16.2497 18.8333 15.6155 18.8623L15.6612 19.8613ZM12.9999 19.9004C14.7408 19.9004 14.9671 19.8928 15.6611 19.8613L15.6156 18.8623C14.9442 18.8928 14.7356 18.9004 12.9999 18.9004V19.9004ZM10.3385 19.8613C11.0325 19.8928 11.2593 19.9004 12.9999 19.9004V18.9004C11.2645 18.9004 11.0553 18.8928 10.3839 18.8623L10.3385 19.8613ZM8.62645 19.5305C9.09044 19.7108 9.60997 19.8279 10.3383 19.8613L10.3841 18.8623C9.75003 18.8333 9.33914 18.7346 8.98872 18.5984L8.62645 19.5305ZM7.32049 18.6791C7.72854 19.0876 8.14563 19.3436 8.62649 19.5305L8.98869 18.5984C8.6282 18.4583 8.33115 18.2759 8.02799 17.9724L7.32049 18.6791ZM6.47006 17.3731C6.65691 17.8539 6.91223 18.271 7.32076 18.6794L8.02773 17.9721C7.72451 17.669 7.5425 17.372 7.40214 17.0109L6.47006 17.3731ZM6.13929 15.6616C6.17279 16.3901 6.28986 16.9094 6.47005 17.3731L7.40215 17.0109C7.26607 16.6607 7.1674 16.2499 7.13824 15.6157L6.13929 15.6616ZM6.1001 13.0004C6.1001 14.7412 6.10784 14.9674 6.13928 15.6613L7.13825 15.616C7.10783 14.9446 7.1001 14.7358 7.1001 13.0004H6.1001ZM6.13913 10.3389C6.10811 11.0326 6.1001 11.2594 6.1001 13.0004H7.1001C7.1001 11.2651 7.10809 11.0554 7.13813 10.3836L6.13913 10.3389ZM6.47011 8.62635C6.2892 9.09046 6.17194 9.61028 6.13914 10.3388L7.13813 10.3838C7.16666 9.75014 7.26539 9.33955 7.40183 8.98952L6.47011 8.62635ZM7.32122 7.32064C6.91252 7.72903 6.65729 8.14607 6.4701 8.62637L7.40184 8.9895C7.54265 8.62819 7.72476 8.33109 8.02806 8.02801L7.32122 7.32064ZM8.62739 6.47023C8.14654 6.65696 7.72939 6.91231 7.32102 7.32084L8.02826 8.02781C8.33137 7.72459 8.62836 7.54261 8.98939 7.4024L8.62739 6.47023ZM10.3389 6.1395C9.61038 6.17286 9.09094 6.28994 8.62715 6.47032L8.98962 7.40231C9.33971 7.26616 9.75041 7.1675 10.3846 7.13845L10.3389 6.1395Z" fill="#CEB388"/>
<path d="M16.4169 8.8157V9.3157H16.9169V8.8157H16.4169ZM16.4169 8.81543V8.31543H15.9169V8.81543H16.4169ZM16.4169 8.3157C15.7171 8.3157 15.1489 8.88287 15.1489 9.58344H16.1489C16.1489 9.43573 16.2688 9.3157 16.4169 9.3157V8.3157ZM15.1489 9.58344C15.1489 10.2836 15.7168 10.8514 16.4169 10.8514V9.85145C16.2691 9.85145 16.1489 9.7313 16.1489 9.58344H15.1489ZM16.4169 10.8514C17.1171 10.8514 17.6849 10.2836 17.6849 9.58344H16.6849C16.6849 9.7313 16.5648 9.85145 16.4169 9.85145V10.8514ZM17.6849 9.58344C17.6849 8.88329 17.1171 8.31543 16.4169 8.31543V9.31543C16.5648 9.31543 16.6849 9.43558 16.6849 9.58344H17.6849ZM15.9169 8.81543V8.8157H16.9169V8.81543H15.9169Z" fill="#CEB388"/>
<path fill-rule="evenodd" clip-rule="evenodd" d="M13.0005 10.8667C14.1787 10.8667 15.1339 11.8218 15.1339 13.0001C15.1339 14.1782 14.1787 15.1334 13.0005 15.1334C11.8223 15.1334 10.8672 14.1782 10.8672 13.0001C10.8672 11.8218 11.8223 10.8667 13.0005 10.8667V10.8667Z" stroke="#CEB388"/>
</svg>
