<svg width="54" height="45" viewBox="0 0 54 45" fill="none" xmlns="http://www.w3.org/2000/svg">
<path d="M12.4609 0.629883C19.3411 0.629883 24.9211 6.28185 24.9211 13.2544C24.9211 28.5158 12.1927 44.1706 1.35609 44.1706C7.30569 38.1417 11.2231 31.3959 12.0313 25.8595C5.35029 25.629 8.7738e-05 20.081 8.7738e-05 13.2544C8.7738e-05 6.28185 5.57889 0.629883 12.4609 0.629883Z" fill="#CEB388" fill-opacity="0.6"/>
<path d="M30.4349 44.1703C36.3845 38.1414 40.3019 31.3957 41.1101 25.8592C34.4303 25.6288 29.0801 20.0814 29.0801 13.2554C29.0801 6.28283 34.6595 0.63086 41.5403 0.63086C48.4211 0.629644 53.9999 6.28161 53.9999 13.2542C53.9999 28.5156 41.2715 44.1703 30.4349 44.1703Z" fill="#CEB388" fill-opacity="0.6"/>
</svg>
