<svg width="34" height="34" viewBox="0 0 34 34" fill="none" xmlns="http://www.w3.org/2000/svg">
<g clip-path="url(#clip0)">
<path d="M11 22.4V22.0323C11.0003 18.7272 13.7564 16.0492 17.1576 16.0488V16.4172V16.785C15.6651 16.7853 14.3178 17.3715 13.3395 18.3221C12.4452 19.1911 11.8641 20.3611 11.7712 21.6639H22.5443C22.3496 18.9379 20.0123 16.785 17.1576 16.785V16.4172V16.0488C20.5585 16.0492 23.315 18.7272 23.3155 22.0318L23.3158 22.4H11Z" fill="#150A01"/>
<path d="M13.0546 11.9869C13.0549 9.78447 14.8918 8.00032 17.1579 8C19.4239 8.00032 21.26 9.78447 21.2608 11.9869C21.26 14.1888 19.4241 15.9726 17.1579 15.9729V15.6045V15.2359C19.0051 15.2362 20.5025 13.7815 20.5028 11.9867C20.5025 10.1916 19.0051 8.7365 17.1579 8.7365C15.3105 8.7399 13.8163 10.1916 13.8129 11.9869C13.8164 13.7817 15.3105 15.233 17.1579 15.2361V15.6045V15.9727C14.8918 15.9726 13.0549 14.1888 13.0546 11.9869Z" fill="#150A01"/>
</g>
<circle cx="17" cy="17" r="16.5" stroke="#150A01"/>
<defs>
<clipPath id="clip0">
<rect width="12.3158" height="18" fill="white" transform="translate(11 8)"/>
</clipPath>
</defs>
</svg>
