<svg width="18" height="22" viewBox="0 0 18 22" fill="none" xmlns="http://www.w3.org/2000/svg">
<path d="M9.00018 16.1335C9.09018 16.1335 9.15018 16.1041 9.21018 16.0455C9.45018 15.8108 14.8202 10.2081 14.8202 7.15746C14.8202 4.0188 12.2102 1.4668 9.00018 1.4668C5.79018 1.4668 3.18018 4.0188 3.18018 7.15746C3.18018 10.2081 8.55018 15.8108 8.79017 16.0455C8.85017 16.1041 8.91018 16.1335 9.00018 16.1335ZM9.00018 2.05346C11.8802 2.05346 14.2202 4.34146 14.2202 7.15746C14.2202 9.6508 10.0202 14.3148 9.00018 15.4001C7.98018 14.3148 3.78018 9.6508 3.78018 7.15746C3.78018 4.34146 6.12018 2.05346 9.00018 2.05346Z" fill="white"/>
<path d="M11.4898 7.15732C11.4898 5.80799 10.3798 4.72266 8.99977 4.72266C7.61977 4.72266 6.50977 5.80799 6.50977 7.15732C6.50977 8.47732 7.61977 9.59199 8.99977 9.59199C10.3798 9.56265 11.4898 8.47732 11.4898 7.15732ZM7.10977 7.15732C7.10977 6.13066 7.94977 5.30932 8.99977 5.30932C10.0498 5.30932 10.8898 6.13066 10.8898 7.15732C10.8898 8.15466 10.0498 9.00532 8.99977 9.00532C7.94977 8.97599 7.10977 8.15466 7.10977 7.15732Z" fill="white"/>
</svg>
