<svg width="84" height="84" viewBox="0 0 84 84" fill="none" xmlns="http://www.w3.org/2000/svg">
<g clip-path="url(#clip0)">
<path d="M41.9994 21.2646C33.9081 21.2646 27.4766 27.7903 27.4766 36.0001C27.4766 44.2098 41.9994 63.3659 41.9994 63.3659C41.9994 63.3659 56.5223 44.2098 56.5223 36.0001C56.5223 27.7903 50.0908 21.2646 41.9994 21.2646ZM41.9994 42.3153C38.4725 42.3153 35.7754 39.5787 35.7754 36.0001C35.7754 32.4215 38.4725 29.6849 41.9994 29.6849C45.5264 29.6849 48.2235 32.4215 48.2235 36.0001C48.2235 39.5787 45.5264 42.3153 41.9994 42.3153Z" fill="#CEB388"/>
</g>
<circle cx="42" cy="42" r="41" stroke="#CEB388" stroke-width="2"/>
<defs>
<clipPath id="clip0">
<rect width="41.494" height="52.6265" fill="white" transform="translate(21.2529 21.2646)"/>
</clipPath>
</defs>
</svg>
