<svg width="34" height="33" viewBox="0 0 34 33" fill="none" xmlns="http://www.w3.org/2000/svg">
<path fill-rule="evenodd" clip-rule="evenodd" d="M0.691406 16.5C0.691406 7.3873 8.07871 0 17.1914 0C26.3041 0 33.6914 7.3873 33.6914 16.5C33.6914 25.6127 26.3041 33 17.1914 33C8.07871 33 0.691406 25.6127 0.691406 16.5Z" fill="#CEB388"/>
<path fill-rule="evenodd" clip-rule="evenodd" d="M17.1805 16.7649C19.6136 16.7649 21.5914 14.8555 21.5914 12.5081C21.5914 10.1599 19.6136 8.25 17.1805 8.25C14.7479 8.25 12.7695 10.1599 12.7695 12.5081C12.7695 14.8555 14.7479 16.7649 17.1805 16.7649Z" fill="white"/>
<path fill-rule="evenodd" clip-rule="evenodd" d="M18.9759 20.2404C19.8738 20.043 20.7397 19.7001 21.5373 19.2165C22.1409 18.8492 22.3227 18.079 21.9424 17.4964C21.5624 16.9125 20.7651 16.7367 20.1604 17.104C18.3536 18.2008 16.0274 18.2005 14.2216 17.104C13.617 16.7367 12.8194 16.9125 12.4401 17.4964C12.0598 18.0795 12.2411 18.8492 12.8447 19.2165C13.6423 19.6996 14.5082 20.043 15.4061 20.2404L12.94 22.6209C12.4359 23.108 12.4359 23.8978 12.9405 24.3849C13.1931 24.6282 13.5235 24.75 13.854 24.75C14.1849 24.75 14.5159 24.6282 14.7685 24.3849L17.1908 22.0457L19.6152 24.3849C20.1193 24.872 20.9371 24.872 21.4418 24.3849C21.9469 23.8978 21.9469 23.1075 21.4418 22.6209L18.9759 20.2404Z" fill="white"/>
<path fill-rule="evenodd" clip-rule="evenodd" d="M17.1804 10.7451C18.1875 10.7451 19.0067 11.5356 19.0067 12.5078C19.0067 13.4792 18.1875 14.2703 17.1804 14.2703C16.174 14.2703 15.354 13.4792 15.354 12.5078C15.354 11.5356 16.174 10.7451 17.1804 10.7451V10.7451Z" stroke="#CEB388"/>
</svg>
