<svg width="26" height="26" viewBox="0 0 26 26" fill="none" xmlns="http://www.w3.org/2000/svg">
<path d="M14.298 15.7198L14.1906 15.2315L13.2798 15.4318L13.9507 16.0796L14.298 15.7198ZM16.1608 14.9752L16.42 15.4028L16.4208 15.4023L16.1608 14.9752ZM16.0913 17.4511L15.7441 17.8108L15.7445 17.8112L16.0913 17.4511ZM16.0913 18.734L15.7443 18.3741L15.7441 18.3743L16.0913 18.734ZM14.7629 18.734L15.1103 18.3744L15.1101 18.3742L14.7629 18.734ZM12.9997 17.0327L13.3469 16.6729L12.9995 16.3378L12.6524 16.6731L12.9997 17.0327ZM11.238 18.734L11.5849 19.0941L11.5854 19.0937L11.238 18.734ZM9.90863 18.734L9.56137 19.0937L9.56175 19.0941L9.90863 18.734ZM9.90824 17.4511L9.56099 17.0914L9.5608 17.0915L9.90824 17.4511ZM11.7018 15.7198L12.049 16.0796L12.7201 15.4318L11.8092 15.2315L11.7018 15.7198ZM9.83895 14.9752L9.579 15.4023L9.57994 15.4029L9.83895 14.9752ZM9.5447 13.7242L9.96351 13.9973L9.96402 13.9965L9.5447 13.7242ZM10.8403 13.4388L10.5807 13.8662L10.5808 13.8662L10.8403 13.4388ZM15.1595 13.4388L15.4189 13.8663L15.4191 13.8662L15.1595 13.4388ZM16.4555 13.7242L16.0364 13.9969L16.0368 13.9975L16.4555 13.7242ZM13 0.5C6.09644 0.5 0.5 6.09644 0.5 13H1.5C1.5 6.64873 6.64873 1.5 13 1.5V0.5ZM25.5 13C25.5 6.09644 19.9036 0.5 13 0.5V1.5C19.3513 1.5 24.5 6.64873 24.5 13H25.5ZM13 25.5C19.9036 25.5 25.5 19.9036 25.5 13H24.5C24.5 19.3513 19.3513 24.5 13 24.5V25.5ZM0.5 13C0.5 19.9036 6.09644 25.5 13 25.5V24.5C6.64873 24.5 1.5 19.3513 1.5 13H0.5ZM15.6999 10.0968C15.6999 11.5113 14.5021 12.6927 12.9919 12.6927V13.6927C15.0207 13.6927 16.6999 12.0967 16.6999 10.0968H15.6999ZM12.9919 7.5C14.502 7.5 15.6999 8.68162 15.6999 10.0968H16.6999C16.6999 8.09648 15.0209 6.5 12.9919 6.5V7.5ZM10.2839 10.0968C10.2839 8.68166 11.4821 7.5 12.9919 7.5V6.5C10.9634 6.5 9.28394 8.09645 9.28394 10.0968H10.2839ZM12.9919 12.6927C11.482 12.6927 10.2839 11.5112 10.2839 10.0968H9.28394C9.28394 12.0967 10.9635 13.6927 12.9919 13.6927V12.6927ZM14.4054 16.2082C15.1111 16.053 15.7923 15.7833 16.42 15.4028L15.9016 14.5476C15.3692 14.8704 14.7909 15.0995 14.1906 15.2315L14.4054 16.2082ZM16.4386 17.0914L14.6453 15.3601L13.9507 16.0796L15.7441 17.8108L16.4386 17.0914ZM16.4384 19.0939C17.0096 18.5431 17.0099 17.6417 16.4382 17.091L15.7445 17.8112C15.9076 17.9683 15.9079 18.2163 15.7443 18.3741L16.4384 19.0939ZM14.4155 19.0936C14.976 19.6352 15.878 19.6349 16.4386 19.0937L15.7441 18.3743C15.5707 18.5416 15.2831 18.5413 15.1103 18.3744L14.4155 19.0936ZM12.6525 17.3926L14.4157 19.0938L15.1101 18.3742L13.3469 16.6729L12.6525 17.3926ZM11.5854 19.0937L13.347 17.3924L12.6524 16.6731L10.8907 18.3743L11.5854 19.0937ZM10.5729 19.4995C10.9352 19.4995 11.3026 19.3661 11.5849 19.0941L10.8912 18.3739C10.8061 18.4558 10.6921 18.4995 10.5729 18.4995V19.4995ZM9.56175 19.0941C9.84387 19.3659 10.2107 19.4995 10.5729 19.4995V18.4995C10.4545 18.4995 10.3408 18.456 10.2555 18.3739L9.56175 19.0941ZM9.5608 17.0915C8.99074 17.6424 8.99075 18.5429 9.56137 19.0937L10.2559 18.3743C10.0925 18.2165 10.0925 17.9683 10.2557 17.8107L9.5608 17.0915ZM11.3545 15.3601L9.56099 17.0914L10.2555 17.8108L12.049 16.0796L11.3545 15.3601ZM9.57994 15.4029C10.2074 15.7829 10.8885 16.0529 11.5944 16.2082L11.8092 15.2315C11.2091 15.0995 10.6306 14.8701 10.098 14.5475L9.57994 15.4029ZM9.1259 13.451C8.69093 14.118 8.90553 14.9924 9.579 15.4023L10.0989 14.5481C9.89442 14.4236 9.84529 14.1786 9.96351 13.9973L9.1259 13.451ZM11.0999 13.0115C10.4352 12.6077 9.55226 12.7946 9.12539 13.4518L9.96402 13.9965C10.0888 13.8044 10.3659 13.7357 10.5807 13.8662L11.0999 13.0115ZM14.9 13.0114C13.7454 13.7123 12.2537 13.7121 11.0998 13.0115L10.5808 13.8662C12.0536 14.7605 13.9454 14.7607 15.4189 13.8663L14.9 13.0114ZM16.8745 13.4514C16.4472 12.7949 15.5647 12.6075 14.8998 13.0115L15.4191 13.8662C15.6337 13.7358 15.9109 13.8042 16.0364 13.9969L16.8745 13.4514ZM16.4208 15.4023C17.0939 14.9926 17.3095 14.1179 16.8742 13.4509L16.0368 13.9975C16.1545 14.1779 16.1057 14.4234 15.9009 14.5481L16.4208 15.4023Z" fill="#CEB388"/>
<path fill-rule="evenodd" clip-rule="evenodd" d="M12.9918 8.81494C13.7243 8.81494 14.3201 9.38987 14.3201 10.0969C14.3201 10.8034 13.7243 11.3787 12.9918 11.3787C12.2599 11.3787 11.6636 10.8034 11.6636 10.0969C11.6636 9.38987 12.2599 8.81494 12.9918 8.81494V8.81494Z" stroke="#CEB388"/>
</svg>
