<svg width="18" height="23" viewBox="0 0 18 23" fill="none" xmlns="http://www.w3.org/2000/svg">
<path d="M13.2721 16.9284C13.272 16.9284 13.2718 16.9284 13.2716 16.9284C10.3502 16.9282 7.03659 13.8698 5.74761 12.5549C4.33749 11.1166 1.09803 7.43659 1.46937 4.33693C1.60905 3.17166 2.24247 2.23546 3.35217 1.5543C3.44145 1.49946 3.54351 1.47168 3.65547 1.47168C4.52829 1.47168 6.24963 3.55438 6.94641 4.56288C7.94235 6.00452 7.80123 6.41134 7.74813 6.56443C7.57929 7.05093 7.26519 7.33466 6.98817 7.58471C6.74571 7.80367 6.53637 7.99264 6.42963 8.3001C6.41487 8.37481 6.51171 8.77814 7.14423 9.57283C8.13819 10.8216 9.44787 11.8272 9.86961 11.8272C10.1808 11.7183 10.366 11.5043 10.5801 11.2564C10.8249 10.9733 11.1022 10.6524 11.5783 10.4796C11.6453 10.4553 11.7195 10.443 11.7987 10.443C12.8022 10.443 15.705 12.8766 16.3863 14.1059C16.4585 14.2363 16.6785 14.6334 16.4794 14.9729C15.7185 16.2706 14.6392 16.9284 13.2721 16.9284ZM3.68049 2.21173C2.78481 2.77422 2.29521 3.49918 2.18415 4.42635C1.95321 6.35338 3.47547 9.19747 6.25611 12.0338C7.48191 13.2841 10.6189 16.1922 13.272 16.1924C13.272 16.1924 13.2721 16.1924 13.2723 16.1924C14.3698 16.1924 15.2093 15.6833 15.8371 14.6365C15.7183 13.9092 12.5584 11.1909 11.8037 11.1792C11.5125 11.2899 11.3301 11.5006 11.1199 11.7438C10.8749 12.0272 10.5974 12.3483 10.1211 12.5211C10.044 12.549 9.95961 12.5632 9.86979 12.5632C8.91597 12.5632 7.09581 10.8097 6.26169 9.60227C5.79225 8.92294 5.62521 8.41658 5.75121 8.05391C5.92005 7.56705 6.23433 7.28332 6.51135 7.03308C6.74967 6.81798 6.95595 6.63141 7.06413 6.33314C7.06809 6.068 6.48093 5.00466 5.38473 3.73414C4.48455 2.69068 3.88029 2.25773 3.68049 2.21173Z" fill="white"/>
</svg>
