<svg width="84" height="84" viewBox="0 0 84 84" fill="none" xmlns="http://www.w3.org/2000/svg">
<circle cx="42" cy="42" r="41" stroke="#CEB388" stroke-width="2"/>
<g clip-path="url(#clip0)">
<path fill-rule="evenodd" clip-rule="evenodd" d="M29.3821 21.8495L35.8566 28.324C36.7815 29.2489 36.7815 30.8345 35.8566 31.7594L31.7605 35.7234C34.271 40.0837 36.3851 42.7264 39.1599 45.5011C41.8025 48.1438 44.4452 50.2579 48.277 52.2399L52.3731 48.1438C53.298 47.2188 54.8836 47.2188 55.8085 48.1438L62.1509 54.6182C63.0758 55.411 63.0758 56.8645 62.1509 57.6573C61.0938 58.7143 60.0368 59.7714 58.9797 60.8285C48.277 71.399 12.6013 35.8555 23.1719 25.1528C24.229 24.0957 25.286 23.0387 26.3431 21.8495C27.1359 21.0567 28.5893 21.0567 29.3821 21.8495Z" fill="#CEB388"/>
</g>
<defs>
<clipPath id="clip0">
<rect width="44" height="55" fill="white" transform="translate(18 20)"/>
</clipPath>
</defs>
</svg>
