<svg width="84" height="84" viewBox="0 0 84 84" fill="none" xmlns="http://www.w3.org/2000/svg">
<circle cx="42" cy="42" r="41" stroke="#CEB388" stroke-width="2"/>
<path d="M42 21C30.4 21 21 30.4 21 42C21 53.6 30.4 63 42 63C53.6 63 63 53.6 63 42C63 30.4 53.6 21 42 21ZM51.2 51.2C51 51.4 50.75 51.5 50.5 51.5C50.25 51.5 50 51.4 49.8 51.2L41.35 42.75L41.3 42.7C41.25 42.65 41.2 42.6 41.15 42.55C41.15 42.55 41.1 42.5 41.1 42.45C41.1 42.4 41.05 42.4 41.05 42.35C41.05 42.3 41.05 42.3 41 42.25C41 42.25 41 42.2 40.95 42.15C40.95 42.1 40.95 42 40.95 41.95V27C40.95 26.45 41.4 26 41.95 26C42.5 26 42.95 26.45 42.95 27V41.6L51.15 49.8C51.6 50.2 51.6 50.8 51.2 51.2Z" fill="#CEB388"/>
</svg>
