<svg width="33" height="33" viewBox="0 0 33 33" fill="none" xmlns="http://www.w3.org/2000/svg">
<circle cx="16.5" cy="16.5" r="16" stroke="#CEB388"/>
<path d="M17.0169 23.8366C17.0169 18.9565 17.0169 14.0764 17.0169 9.19632C17.0169 8.50227 15.9806 8.50227 15.9806 9.19632C15.9806 14.0764 15.9806 18.9565 15.9806 23.8366C15.9806 24.5306 17.0169 24.5306 17.0169 23.8366Z" fill="#CEB388"/>
<path d="M16.1257 9.56474C17.5351 11.0396 18.9238 12.4928 20.3331 13.9677C20.8098 14.4665 21.5352 13.6857 21.0585 13.2085C19.6699 11.7337 18.2605 10.2588 16.8719 8.80562C16.3952 8.30677 15.6698 9.06589 16.1257 9.56474Z" fill="#CEB388"/>
<path d="M16.1257 8.80562C14.7371 10.2588 13.3277 11.7337 11.9391 13.1869C11.4624 13.6857 12.2085 14.4448 12.6645 13.946C14.0738 12.4928 15.4625 11.0396 16.8719 9.56474C17.3278 9.06589 16.6024 8.30677 16.1257 8.80562Z" fill="#CEB388"/>
</svg>
