<svg width="13" height="16" viewBox="0 0 13 16" fill="none" xmlns="http://www.w3.org/2000/svg">
<path d="M0 15.2001V14.812C0.000351546 11.3233 2.90957 8.49644 6.49974 8.49609V8.88497V9.27317C4.92428 9.27351 3.5021 9.89227 2.46944 10.8956C1.52553 11.8129 0.912086 13.0479 0.814005 14.4231H12.1856C11.9802 11.5457 9.51301 9.27317 6.49974 9.27317V8.88497V8.49609C10.0896 8.49644 12.9991 11.3233 12.9996 14.8114L13 15.2001H0Z" fill="#150A01"/>
<path d="M2.16846 4.20835C2.16881 1.8836 4.10776 0.000341573 6.49968 0C8.8916 0.000341573 10.8297 1.8836 10.8306 4.20835C10.8297 6.53258 8.89178 8.41551 6.49968 8.41585V8.02697V7.63791C8.44953 7.63826 10.0301 6.10271 10.0304 4.20818C10.0301 2.3133 8.44953 0.77742 6.49968 0.77742C4.54965 0.781007 2.97244 2.3133 2.96893 4.20835C2.97262 6.10289 4.54965 7.63484 6.49968 7.63809V8.02697V8.41568C4.10776 8.41551 2.16881 6.53258 2.16846 4.20835Z" fill="#150A01"/>
</svg>
