<svg width="34" height="33" viewBox="0 0 34 33" fill="none" xmlns="http://www.w3.org/2000/svg">
<path fill-rule="evenodd" clip-rule="evenodd" d="M0.845703 16.5C0.845703 7.3873 8.23301 0 17.3457 0C26.4584 0 33.8457 7.3873 33.8457 16.5C33.8457 25.6127 26.4584 33 17.3457 33C8.23301 33 0.845703 25.6127 0.845703 16.5Z" fill="#CEB388"/>
<path fill-rule="evenodd" clip-rule="evenodd" d="M18.209 21.9144C18.209 21.9144 18.5267 21.8798 18.6894 21.7082C18.8383 21.5511 18.8331 21.2545 18.8331 21.2545C18.8331 21.2545 18.8133 19.8696 19.4684 19.6651C20.114 19.464 20.943 21.0044 21.8227 21.5967C22.4873 22.0445 22.9917 21.9465 22.9917 21.9465L25.3426 21.9144C25.3426 21.9144 26.5719 21.8401 25.9891 20.8912C25.9409 20.8134 25.6491 20.189 24.2416 18.9063C22.7671 17.5636 22.965 17.7808 24.74 15.458C25.8212 14.0435 26.2534 13.1799 26.1182 12.8107C25.99 12.4575 25.1946 12.5513 25.1946 12.5513L22.5484 12.5673C22.5484 12.5673 22.3521 12.5411 22.2067 12.6265C22.0646 12.7101 21.9725 12.9053 21.9725 12.9053C21.9725 12.9053 21.5542 13.9995 20.9955 14.9307C19.817 16.8944 19.3462 16.9984 19.1533 16.8767C18.7049 16.5919 18.8168 15.7343 18.8168 15.125C18.8168 13.2213 19.1112 12.4279 18.2443 12.2226C17.9568 12.1541 17.745 12.1093 17.0091 12.1017C16.0647 12.0924 15.2659 12.1051 14.8131 12.3223C14.5118 12.4668 14.2794 12.7895 14.4214 12.8081C14.5962 12.8309 14.9922 12.9129 15.2022 13.1934C15.4734 13.5559 15.4639 14.3688 15.4639 14.3688C15.4639 14.3688 15.6197 16.6097 15.0998 16.8877C14.7434 17.0786 14.2544 16.6891 13.2034 14.907C12.6654 13.9945 12.2591 12.9856 12.2591 12.9856C12.2591 12.9856 12.1807 12.7971 12.0404 12.6957C11.8708 12.5732 11.6341 12.5352 11.6341 12.5352L9.11967 12.5513C9.11967 12.5513 8.74177 12.5614 8.60318 12.7228C8.48008 12.8656 8.59371 13.1622 8.59371 13.1622C8.59371 13.1622 10.5624 17.6836 12.7919 19.9625C14.8363 22.0513 17.1571 21.9144 17.1571 21.9144H18.209Z" fill="#F3F3F3"/>
</svg>
