<svg width="26" height="26" viewBox="0 0 26 26" fill="none" xmlns="http://www.w3.org/2000/svg">
<path d="M13.6278 16.938V17.438H13.655L13.682 17.435L13.6278 16.938ZM13.9772 16.788L14.3399 17.1321L14.3401 17.1319L13.9772 16.788ZM12.8628 16.938V16.438H12.8481L12.8334 16.4389L12.8628 16.938ZM9.68811 15.5184L9.3307 15.8681L9.33078 15.8682L9.68811 15.5184ZM6.63487 10.5727L6.16796 10.7516L6.17197 10.762L6.17644 10.7723L6.63487 10.5727ZM6.64175 10.2532L7.02047 10.5796L7.02108 10.5789L6.64175 10.2532ZM7.01738 10.1284L7.01419 9.62831L7.00397 9.62859L7.01738 10.1284ZM8.84607 10.1167L8.92537 9.62306L8.88438 9.61648L8.84288 9.61674L8.84607 10.1167ZM9.14157 10.2335L9.43443 9.82823L9.43438 9.82821L9.14157 10.2335ZM9.30058 10.4443L9.76441 10.2575L9.76227 10.2523L9.30058 10.4443ZM9.98736 11.8417L9.55664 12.0956L9.55669 12.0957L9.98736 11.8417ZM11.3665 13.2822L11.1308 12.8412L11.1304 12.8414L11.3665 13.2822ZM11.6314 11.4503L11.1314 11.4444L11.1312 11.4647L11.1326 11.4849L11.6314 11.4503ZM11.441 10.5954L11.8414 10.296L11.8413 10.2958L11.441 10.5954ZM10.8732 10.3152L10.8083 10.811L10.8085 10.811L10.8732 10.3152ZM11.1581 9.96187L11.3743 10.4127L11.3743 10.4127L11.1581 9.96187ZM12.7551 9.80148L12.7603 9.30151L12.76 9.3015L12.7551 9.80148ZM13.6535 9.88936L13.5377 10.3758L13.5382 10.3759L13.6535 9.88936ZM14.0909 11.1678L13.5914 11.1472V11.1472L14.0909 11.1678ZM14.0655 12.2268L14.5653 12.2407V12.2407L14.0655 12.2268ZM14.3146 13.2742L14.0466 13.6963L14.0478 13.697L14.3146 13.2742ZM15.6543 11.8589L16.0831 12.1162L16.0831 12.1162L15.6543 11.8589ZM16.3649 10.3859L15.9127 10.1725L15.9046 10.1896L15.8979 10.2073L16.3649 10.3859ZM16.5352 10.1831L16.2822 9.75183L16.2815 9.75227L16.5352 10.1831ZM16.7837 10.1401L16.7176 10.6357L16.752 10.6403L16.7868 10.6401L16.7837 10.1401ZM18.7082 10.1284L18.7112 10.6284L18.7391 10.6282L18.7668 10.625L18.7082 10.1284ZM19.38 10.3171L18.91 10.4877L18.9104 10.4889L19.38 10.3171ZM18.3777 12.2424L17.9804 11.9387L17.9804 11.9388L18.3777 12.2424ZM17.3021 13.8957L17.7994 13.8436V13.8436L17.3021 13.8957ZM18.0152 14.7503L18.352 14.3807L18.3518 14.3806L18.0152 14.7503ZM19.2746 16.1738L18.8382 16.4177L18.8382 16.4178L19.2746 16.1738ZM19.2861 16.1938L19.7121 15.9321L19.711 15.9302L19.2861 16.1938ZM18.8159 16.938L18.8227 17.4379L18.8344 17.4378L18.8461 17.4371L18.8159 16.938ZM17.1062 16.9613L17.0993 16.4614L17.0546 16.462L17.0108 16.4705L17.1062 16.9613ZM16.256 16.7069L16.5354 16.2923L16.5352 16.2922L16.256 16.7069ZM15.5198 15.9928L15.146 16.325L15.5198 15.9928ZM14.5437 15.3021L14.395 14.8247L14.3948 14.8248L14.5437 15.3021ZM14.0817 16.458L13.5818 16.4652L13.5818 16.4667L14.0817 16.458ZM1.5 13C1.5 6.64873 6.64873 1.5 13 1.5V0.5C6.09644 0.5 0.5 6.09644 0.5 13H1.5ZM13 24.5C6.64873 24.5 1.5 19.3513 1.5 13H0.5C0.5 19.9036 6.09644 25.5 13 25.5V24.5ZM24.5 13C24.5 19.3513 19.3513 24.5 13 24.5V25.5C19.9036 25.5 25.5 19.9036 25.5 13H24.5ZM13 1.5C19.3513 1.5 24.5 6.64873 24.5 13H25.5C25.5 6.09644 19.9036 0.5 13 0.5V1.5ZM13.6278 16.938C13.682 17.435 13.6822 17.435 13.6823 17.435C13.6823 17.435 13.6824 17.435 13.6825 17.435C13.6827 17.435 13.6828 17.4349 13.683 17.4349C13.6834 17.4349 13.6837 17.4348 13.6841 17.4348C13.6848 17.4347 13.6856 17.4346 13.6865 17.4345C13.6882 17.4343 13.6902 17.4341 13.6924 17.4338C13.6969 17.4333 13.7022 17.4326 13.7085 17.4317C13.7209 17.4299 13.737 17.4274 13.756 17.4239C13.7933 17.417 13.8446 17.406 13.9026 17.3885C14.0035 17.358 14.191 17.2891 14.3399 17.1321L13.6144 16.444C13.645 16.4117 13.6579 16.4178 13.6137 16.4311C13.5991 16.4355 13.5853 16.4385 13.5756 16.4403C13.571 16.4411 13.5681 16.4416 13.5675 16.4417C13.5672 16.4417 13.5675 16.4416 13.5685 16.4415C13.569 16.4415 13.5696 16.4414 13.5705 16.4413C13.5709 16.4412 13.5714 16.4412 13.5719 16.4411C13.5722 16.4411 13.5724 16.4411 13.5727 16.441C13.5729 16.441 13.573 16.441 13.5732 16.441C13.5732 16.441 13.5733 16.441 13.5734 16.441C13.5735 16.4409 13.5736 16.4409 13.6278 16.938ZM12.8628 17.438H13.6278V16.438H12.8628V17.438ZM9.33078 15.8682C10.1472 16.7022 11.0243 17.0964 11.702 17.2804C12.0401 17.3722 12.3286 17.4117 12.5363 17.4282C12.6403 17.4365 12.7244 17.439 12.7849 17.4393C12.8151 17.4394 12.8395 17.439 12.8576 17.4385C12.8666 17.4383 12.874 17.438 12.8798 17.4377C12.8827 17.4376 12.8852 17.4375 12.8873 17.4374C12.8883 17.4373 12.8892 17.4373 12.8901 17.4372C12.8905 17.4372 12.8909 17.4372 12.8912 17.4372C12.8914 17.4372 12.8917 17.4371 12.8918 17.4371C12.892 17.4371 12.8922 17.4371 12.8628 16.938C12.8334 16.4389 12.8336 16.4388 12.8338 16.4388C12.8339 16.4388 12.8341 16.4388 12.8342 16.4388C12.8345 16.4388 12.8347 16.4388 12.8349 16.4388C12.8353 16.4387 12.8356 16.4387 12.8359 16.4387C12.8363 16.4387 12.8363 16.4387 12.836 16.4387C12.8353 16.4387 12.8331 16.4388 12.8294 16.4389C12.822 16.4391 12.8087 16.4394 12.7899 16.4393C12.7522 16.4391 12.6929 16.4375 12.6154 16.4314C12.4602 16.419 12.2338 16.3886 11.964 16.3153C11.4261 16.1693 10.7159 15.8537 10.0454 15.1687L9.33078 15.8682ZM6.63487 10.5727C6.17644 10.7723 6.17647 10.7724 6.1765 10.7725C6.17652 10.7725 6.17656 10.7726 6.17659 10.7727C6.17667 10.7728 6.17676 10.7731 6.17688 10.7733C6.17711 10.7739 6.17744 10.7746 6.17784 10.7755C6.17866 10.7774 6.17983 10.7801 6.18133 10.7835C6.18434 10.7903 6.18872 10.8002 6.19443 10.8131C6.20584 10.8388 6.22257 10.8762 6.24433 10.924C6.28782 11.0198 6.35143 11.1576 6.43271 11.3279C6.59516 11.6681 6.82885 12.1391 7.11435 12.6632C7.67935 13.7005 8.46946 14.9878 9.3307 15.8681L10.0455 15.1688C9.28529 14.3917 8.54877 13.2061 7.99253 12.1849C7.71739 11.6798 7.4918 11.2251 7.33512 10.897C7.25684 10.733 7.19592 10.601 7.15479 10.5104C7.13422 10.4652 7.11861 10.4303 7.10826 10.407C7.10308 10.3954 7.09922 10.3866 7.09672 10.3809C7.09546 10.3781 7.09455 10.376 7.09398 10.3747C7.09369 10.374 7.09349 10.3736 7.09338 10.3733C7.09332 10.3732 7.09329 10.3731 7.09327 10.373C7.09327 10.373 7.09327 10.373 7.09327 10.373C7.09328 10.3731 7.0933 10.3731 6.63487 10.5727ZM6.26304 9.9267C6.06539 10.156 6.0975 10.4359 6.10967 10.5219C6.11864 10.5853 6.13236 10.6396 6.14322 10.6769C6.14882 10.6962 6.15409 10.7124 6.15835 10.7249C6.1605 10.7312 6.16242 10.7366 6.16404 10.7411C6.16485 10.7433 6.16559 10.7453 6.16624 10.747C6.16657 10.7479 6.16688 10.7487 6.16716 10.7495C6.16731 10.7499 6.16745 10.7502 6.16758 10.7506C6.16764 10.7508 6.16771 10.7509 6.16777 10.7511C6.16781 10.7512 6.16785 10.7513 6.16787 10.7514C6.16791 10.7515 6.16796 10.7516 6.63487 10.5727C7.10177 10.3938 7.10182 10.3939 7.10186 10.3941C7.10188 10.3941 7.10192 10.3942 7.10195 10.3943C7.10201 10.3945 7.10207 10.3946 7.10213 10.3948C7.10224 10.395 7.10235 10.3953 7.10245 10.3956C7.10266 10.3962 7.10285 10.3967 7.10302 10.3971C7.10337 10.3981 7.10366 10.3988 7.10389 10.3995C7.10434 10.4007 7.10457 10.4014 7.10463 10.4016C7.10472 10.4018 7.10424 10.4004 7.10349 10.3978C7.10165 10.3915 7.1003 10.3853 7.09981 10.3818C7.09898 10.376 7.10185 10.3891 7.09815 10.4158C7.09446 10.4423 7.08004 10.5105 7.02047 10.5796L6.26304 9.9267ZM7.01738 10.1284C7.00397 9.62859 7.00387 9.62859 7.00377 9.62859C7.00373 9.6286 7.00362 9.6286 7.00355 9.6286C7.00341 9.6286 7.00326 9.62861 7.0031 9.62861C7.0028 9.62862 7.00247 9.62863 7.00212 9.62864C7.00144 9.62866 7.00067 9.62869 6.99984 9.62871C6.99818 9.62877 6.99623 9.62884 6.994 9.62893C6.98956 9.62911 6.98402 9.62937 6.97748 9.62973C6.96447 9.63046 6.94726 9.63163 6.92688 9.63351C6.88693 9.6372 6.83078 9.64399 6.76784 9.65677C6.70659 9.66921 6.62705 9.68968 6.54523 9.72491C6.46729 9.75847 6.35572 9.81876 6.26242 9.92741L7.02108 10.5789C6.99829 10.6054 6.97694 10.6216 6.96408 10.6302C6.95114 10.6388 6.94243 10.6426 6.9407 10.6434C6.93876 10.6442 6.94683 10.6408 6.96689 10.6368C6.98526 10.633 7.00412 10.6306 7.01885 10.6293C7.02581 10.6286 7.03086 10.6283 7.03327 10.6282C7.03445 10.6281 7.0349 10.6281 7.03454 10.6281C7.03436 10.6281 7.03396 10.6281 7.03334 10.6282C7.03303 10.6282 7.03267 10.6282 7.03224 10.6282C7.03203 10.6282 7.0318 10.6282 7.03156 10.6282C7.03144 10.6282 7.03132 10.6282 7.03119 10.6282C7.03113 10.6282 7.03103 10.6282 7.03099 10.6282C7.03089 10.6282 7.03079 10.6282 7.01738 10.1284ZM8.84288 9.61674L7.01419 9.62842L7.02058 10.6284L8.84926 10.6167L8.84288 9.61674ZM9.43438 9.82821C9.31001 9.73834 9.17797 9.68955 9.0951 9.66396C9.05036 9.65014 9.0114 9.64053 8.98259 9.63418C8.96804 9.63097 8.95571 9.62851 8.94608 9.6267C8.94126 9.62579 8.93708 9.62504 8.93362 9.62444C8.93188 9.62414 8.93033 9.62388 8.92895 9.62365C8.92826 9.62353 8.92762 9.62343 8.92702 9.62333C8.92672 9.62328 8.92643 9.62323 8.92616 9.62319C8.92602 9.62317 8.92589 9.62314 8.92575 9.62312C8.92569 9.62311 8.92559 9.6231 8.92556 9.62309C8.92546 9.62307 8.92537 9.62306 8.84607 10.1167C8.76677 10.6104 8.76668 10.6104 8.76659 10.6104C8.76656 10.6104 8.76646 10.6104 8.7664 10.6103C8.76628 10.6103 8.76616 10.6103 8.76605 10.6103C8.76581 10.6102 8.76559 10.6102 8.76537 10.6102C8.76494 10.6101 8.76455 10.61 8.76419 10.61C8.76347 10.6099 8.76289 10.6098 8.76245 10.6097C8.76157 10.6095 8.76121 10.6095 8.76134 10.6095C8.76161 10.6095 8.76369 10.6099 8.76721 10.6107C8.77453 10.6123 8.78632 10.6152 8.80004 10.6194C8.83409 10.63 8.84979 10.6395 8.84875 10.6388L9.43438 9.82821ZM9.30058 10.4443C9.76227 10.2523 9.76223 10.2522 9.76219 10.2521C9.76218 10.2521 9.76213 10.252 9.7621 10.2519C9.76205 10.2518 9.76199 10.2517 9.76193 10.2515C9.76181 10.2512 9.76169 10.2509 9.76156 10.2506C9.7613 10.25 9.76103 10.2494 9.76074 10.2487C9.76016 10.2473 9.75951 10.2458 9.75879 10.2441C9.75735 10.2408 9.75563 10.2369 9.75363 10.2325C9.74964 10.2236 9.74447 10.2126 9.73812 10.1998C9.72558 10.1744 9.70762 10.1406 9.68411 10.1028C9.6416 10.0343 9.56098 9.91969 9.43443 9.82823L8.84871 10.6387C8.82419 10.621 8.82308 10.6118 8.83457 10.6303C8.83806 10.6359 8.84072 10.641 8.84205 10.6437C8.84264 10.6449 8.84272 10.6451 8.84224 10.644C8.842 10.6435 8.8416 10.6426 8.84105 10.6413C8.84077 10.6407 8.84045 10.6399 8.84009 10.6391C8.83991 10.6387 8.83972 10.6382 8.83952 10.6377C8.83942 10.6375 8.83932 10.6372 8.83921 10.637C8.83916 10.6369 8.83911 10.6367 8.83905 10.6366C8.83903 10.6365 8.83899 10.6364 8.83897 10.6364C8.83893 10.6363 8.83889 10.6362 9.30058 10.4443ZM10.4181 11.5878C10.2341 11.2758 10.0703 10.9429 9.95133 10.6848C9.8922 10.5565 9.84495 10.4484 9.81267 10.3729C9.79654 10.3351 9.78419 10.3056 9.77601 10.2858C9.77192 10.2759 9.76887 10.2685 9.76692 10.2637C9.76594 10.2613 9.76523 10.2596 9.76481 10.2585C9.7646 10.258 9.76446 10.2577 9.76439 10.2575C9.76435 10.2574 9.76433 10.2574 9.76433 10.2574C9.76433 10.2574 9.76434 10.2574 9.76434 10.2574C9.76435 10.2574 9.76436 10.2574 9.76436 10.2574C9.76437 10.2575 9.76438 10.2575 9.30058 10.4443C8.83678 10.6311 8.83679 10.6311 8.83681 10.6311C8.83682 10.6311 8.83683 10.6312 8.83685 10.6312C8.83687 10.6313 8.83691 10.6314 8.83694 10.6315C8.83701 10.6316 8.8371 10.6319 8.83721 10.6321C8.83743 10.6327 8.83771 10.6334 8.83807 10.6343C8.83879 10.636 8.83979 10.6385 8.84108 10.6416C8.84364 10.6479 8.84733 10.6569 8.85208 10.6684C8.86158 10.6913 8.87538 10.7243 8.89307 10.7657C8.92842 10.8485 8.97949 10.9653 9.04315 11.1034C9.16974 11.3781 9.34929 11.7439 9.55664 12.0956L10.4181 11.5878ZM11.1304 12.8414C11.1878 12.8107 11.2597 12.8077 11.3075 12.8237C11.3303 12.8313 11.3024 12.8284 11.2188 12.7454C11.0512 12.5788 10.7986 12.2329 10.418 11.5877L9.55669 12.0957C9.94053 12.7465 10.2479 13.1903 10.514 13.4547C10.6472 13.5871 10.8046 13.71 10.9909 13.7722C11.2022 13.8427 11.4157 13.8231 11.6027 13.7229L11.1304 12.8414ZM11.6314 11.4503C11.1326 11.4849 11.1326 11.4849 11.1326 11.4848C11.1326 11.4848 11.1326 11.4848 11.1326 11.4848C11.1326 11.4847 11.1326 11.4847 11.1326 11.4848C11.1326 11.4848 11.1326 11.4849 11.1326 11.4852C11.1326 11.4856 11.1327 11.4865 11.1327 11.4877C11.1329 11.4901 11.1332 11.494 11.1335 11.4993C11.1341 11.5099 11.1351 11.526 11.1362 11.5469C11.1384 11.5887 11.1412 11.6494 11.1434 11.7232C11.1479 11.8717 11.15 12.0685 11.1412 12.2685C11.1323 12.4731 11.1127 12.6598 11.0807 12.7963C11.0646 12.8649 11.0496 12.9017 11.0425 12.9155C11.0327 12.9344 11.0529 12.8829 11.1308 12.8412L11.6023 13.7231C11.7747 13.6309 11.8741 13.4842 11.9305 13.3753C11.9895 13.2613 12.0278 13.1375 12.0542 13.0249C12.1072 12.799 12.1303 12.5404 12.1403 12.3123C12.1505 12.0795 12.1479 11.8564 12.1429 11.6929C12.1404 11.6108 12.1373 11.5426 12.1348 11.4945C12.1335 11.4704 12.1324 11.4513 12.1316 11.4379C12.1312 11.4312 12.1308 11.4259 12.1306 11.4222C12.1305 11.4203 12.1304 11.4188 12.1303 11.4177C12.1303 11.4172 12.1302 11.4167 12.1302 11.4163C12.1302 11.4162 12.1302 11.416 12.1302 11.4159C12.1302 11.4158 12.1302 11.4157 12.1302 11.4157C12.1302 11.4156 12.1302 11.4156 11.6314 11.4503ZM11.0407 10.8949C11.0399 10.8939 11.0555 10.917 11.0741 10.9807C11.0914 11.0398 11.1047 11.1106 11.1141 11.1846C11.1234 11.2574 11.1278 11.3248 11.1298 11.3742C11.1308 11.3986 11.1312 11.4178 11.1313 11.4302C11.1314 11.4364 11.1314 11.4408 11.1314 11.4433C11.1314 11.4445 11.1314 11.4452 11.1314 11.4454C11.1314 11.4455 11.1314 11.4455 11.1314 11.4453C11.1314 11.4453 11.1314 11.4451 11.1314 11.445C11.1314 11.4449 11.1314 11.4448 11.1314 11.4447C11.1314 11.4447 11.1314 11.4446 11.1314 11.4446C11.1314 11.4445 11.1314 11.4444 11.6314 11.4503C12.1313 11.4561 12.1313 11.456 12.1313 11.4559C12.1313 11.4559 12.1313 11.4558 12.1313 11.4557C12.1313 11.4556 12.1313 11.4555 12.1313 11.4553C12.1313 11.455 12.1313 11.4547 12.1313 11.4543C12.1314 11.4536 12.1314 11.4527 12.1314 11.4517C12.1314 11.4496 12.1314 11.447 12.1314 11.4438C12.1314 11.4375 12.1314 11.4289 12.1312 11.4184C12.131 11.3975 12.1304 11.3685 12.1289 11.3333C12.1261 11.2636 12.1199 11.1668 12.1062 11.0588C12.0826 10.8729 12.0251 10.5415 11.8414 10.296L11.0407 10.8949ZM10.8085 10.811C10.8477 10.8161 10.9075 10.8277 10.963 10.8498C11.0214 10.873 11.0396 10.8935 11.0408 10.8951L11.8413 10.2958C11.6897 10.0933 11.4875 9.9821 11.332 9.92035C11.1735 9.8574 11.0258 9.8309 10.9379 9.81943L10.8085 10.811ZM10.9419 9.51104C10.7575 9.59946 10.6003 9.73607 10.4989 9.8674C10.4564 9.9225 10.3786 10.0333 10.3517 10.1778C10.3377 10.2533 10.3255 10.4062 10.4201 10.5611C10.5254 10.7336 10.6922 10.7958 10.8083 10.811L10.9381 9.81945C11.0284 9.83127 11.1779 9.88321 11.2735 10.0399C11.3584 10.1789 11.3442 10.3104 11.3349 10.3604C11.3176 10.4538 11.2764 10.4968 11.2906 10.4784C11.3027 10.4627 11.3395 10.4294 11.3743 10.4127L10.9419 9.51104ZM12.76 9.3015C12.4172 9.29813 12.0803 9.29833 11.7837 9.32142C11.4963 9.3438 11.1927 9.39074 10.9418 9.51104L11.3743 10.4127C11.4528 10.3751 11.6042 10.3384 11.8614 10.3184C12.1093 10.2991 12.4063 10.2981 12.7502 10.3015L12.76 9.3015ZM13.7693 9.40295C13.5189 9.34334 13.3272 9.30736 12.7603 9.30151L12.75 10.3015C13.2536 10.3067 13.3699 10.3358 13.5377 10.3758L13.7693 9.40295ZM14.5905 11.1883C14.6054 10.8259 14.6264 10.4442 14.5508 10.1493C14.5076 9.98081 14.4268 9.80731 14.2759 9.66365C14.1273 9.52215 13.948 9.44527 13.7687 9.40282L13.5382 10.3759C13.6017 10.3909 13.6025 10.4032 13.5864 10.3879C13.5681 10.3705 13.5726 10.3604 13.5821 10.3977C13.5937 10.4427 13.6032 10.5198 13.6047 10.6541C13.6061 10.7866 13.5997 10.9444 13.5914 11.1472L14.5905 11.1883ZM14.5698 12.0003C14.5698 11.693 14.5807 11.4263 14.5905 11.1883L13.5914 11.1472C13.5816 11.3848 13.5698 11.6701 13.5698 12.0003H14.5698ZM14.5653 12.2407C14.5675 12.1637 14.5698 12.0801 14.5698 12.0003H13.5698C13.5698 12.0636 13.5679 12.1328 13.5657 12.2129L14.5653 12.2407ZM14.5826 12.8521C14.6308 12.8827 14.5997 12.9047 14.5773 12.7611C14.5562 12.6258 14.5593 12.4559 14.5653 12.2407L13.5657 12.2129C13.5603 12.405 13.5513 12.672 13.5892 12.9152C13.6259 13.15 13.725 13.4921 14.0466 13.6963L14.5826 12.8521ZM15.2256 11.6016C14.8032 12.3055 14.5351 12.6272 14.384 12.7611C14.3089 12.8277 14.2954 12.818 14.3368 12.8073C14.3998 12.7909 14.495 12.7968 14.5814 12.8513L14.0478 13.697C14.2043 13.7958 14.3949 13.8254 14.5884 13.7751C14.7602 13.7304 14.9122 13.6292 15.0473 13.5095C15.3168 13.2707 15.6484 12.8405 16.0831 12.1162L15.2256 11.6016ZM16.3649 10.3859C15.8979 10.2073 15.8979 10.2073 15.8979 10.2073C15.8979 10.2073 15.8979 10.2072 15.8979 10.2072C15.8979 10.2072 15.8979 10.2072 15.8979 10.2072C15.8979 10.2072 15.8979 10.2072 15.8979 10.2073C15.8978 10.2075 15.8977 10.2079 15.8975 10.2084C15.897 10.2096 15.8963 10.2114 15.8953 10.214C15.8933 10.2192 15.8902 10.2272 15.886 10.2378C15.8776 10.2591 15.8649 10.2909 15.8483 10.3314C15.8151 10.4125 15.7665 10.5282 15.7056 10.6643C15.5828 10.9387 15.4144 11.287 15.2256 11.6017L16.0831 12.1162C16.3006 11.7536 16.4875 11.3654 16.6184 11.0726C16.6844 10.9251 16.7372 10.7995 16.7738 10.7102C16.792 10.6656 16.8063 10.6299 16.8161 10.605C16.821 10.5926 16.8248 10.5828 16.8275 10.576C16.8288 10.5726 16.8299 10.5699 16.8306 10.568C16.831 10.567 16.8313 10.5662 16.8315 10.5656C16.8316 10.5653 16.8317 10.5651 16.8318 10.5649C16.8318 10.5648 16.8318 10.5647 16.8319 10.5646C16.8319 10.5646 16.8319 10.5646 16.8319 10.5645C16.8319 10.5645 16.8319 10.5645 16.3649 10.3859ZM16.2815 9.75227C16.1365 9.83766 16.0441 9.95901 15.9994 10.0238C15.9735 10.0615 15.9535 10.0954 15.9396 10.1206C15.9325 10.1334 15.9267 10.1444 15.9223 10.1531C15.92 10.1575 15.9181 10.1613 15.9165 10.1646C15.9158 10.1662 15.915 10.1677 15.9144 10.169C15.9141 10.1697 15.9138 10.1703 15.9135 10.1709C15.9134 10.1712 15.9132 10.1715 15.9131 10.1717C15.913 10.1719 15.913 10.172 15.9129 10.1721C15.9129 10.1722 15.9128 10.1723 15.9128 10.1723C15.9128 10.1724 15.9127 10.1725 16.3649 10.3859C16.8171 10.5993 16.8171 10.5994 16.817 10.5995C16.817 10.5995 16.8169 10.5996 16.8169 10.5996C16.8169 10.5998 16.8168 10.5999 16.8167 10.6C16.8166 10.6002 16.8165 10.6005 16.8164 10.6007C16.8162 10.6012 16.816 10.6016 16.8158 10.602C16.8154 10.6027 16.8151 10.6034 16.8148 10.604C16.8143 10.6051 16.8139 10.6059 16.8137 10.6062C16.8133 10.607 16.8136 10.6064 16.8144 10.6049C16.8163 10.6016 16.8195 10.5962 16.8232 10.5908C16.8379 10.5694 16.8306 10.5894 16.7889 10.6139L16.2815 9.75227ZM16.7837 10.1401C16.8499 9.64448 16.8498 9.64446 16.8496 9.64444C16.8496 9.64444 16.8495 9.64442 16.8494 9.64441C16.8492 9.64439 16.849 9.64436 16.8488 9.64434C16.8485 9.64429 16.8481 9.64425 16.8477 9.6442C16.847 9.6441 16.8462 9.644 16.8453 9.64389C16.8436 9.64368 16.8418 9.64346 16.8398 9.64322C16.8358 9.64275 16.8311 9.64225 16.8258 9.64174C16.8153 9.64071 16.8022 9.63964 16.7869 9.63881C16.7568 9.63718 16.716 9.63635 16.6686 9.63925C16.5831 9.64449 16.4316 9.66417 16.2822 9.75183L16.7882 10.6144C16.7446 10.64 16.7173 10.6381 16.7297 10.6374C16.7312 10.6373 16.7327 10.6373 16.7327 10.6373C16.7324 10.6373 16.7313 10.6373 16.729 10.637C16.7278 10.6369 16.7263 10.6368 16.7244 10.6365C16.7235 10.6364 16.7225 10.6363 16.7213 10.6362C16.7208 10.6361 16.7202 10.636 16.7195 10.6359C16.7192 10.6359 16.7189 10.6359 16.7186 10.6358C16.7184 10.6358 16.7183 10.6358 16.7181 10.6358C16.718 10.6357 16.7179 10.6357 16.7178 10.6357C16.7177 10.6357 16.7176 10.6357 16.7837 10.1401ZM18.7052 9.62842L16.7807 9.64009L16.7868 10.6401L18.7112 10.6284L18.7052 9.62842ZM19.8499 10.1464C19.7629 9.90674 19.5745 9.78225 19.4376 9.7218C19.3011 9.66155 19.1605 9.63868 19.0571 9.62872C18.9486 9.61826 18.8487 9.61922 18.7787 9.62222C18.7428 9.62375 18.7128 9.62591 18.6908 9.62778C18.6798 9.62873 18.6706 9.6296 18.6637 9.63031C18.6602 9.63067 18.6573 9.63098 18.655 9.63124C18.6538 9.63137 18.6528 9.63149 18.6519 9.63159C18.6514 9.63164 18.651 9.63169 18.6507 9.63173C18.6505 9.63175 18.6503 9.63177 18.6501 9.63179C18.65 9.6318 18.6499 9.63182 18.6499 9.63182C18.6498 9.63184 18.6497 9.63185 18.7082 10.1284C18.7668 10.625 18.7667 10.625 18.7666 10.625C18.7665 10.625 18.7664 10.625 18.7663 10.625C18.7662 10.625 18.7661 10.625 18.766 10.6251C18.7657 10.6251 18.7656 10.6251 18.7654 10.6251C18.7651 10.6252 18.7649 10.6252 18.7648 10.6252C18.7646 10.6252 18.765 10.6252 18.7657 10.6251C18.7673 10.6249 18.7707 10.6246 18.7757 10.6242C18.7857 10.6233 18.8016 10.6222 18.8214 10.6213C18.8627 10.6195 18.9134 10.6195 18.9612 10.6241C19.014 10.6292 19.0355 10.6374 19.0337 10.6366C19.0315 10.6356 18.9504 10.599 18.91 10.4877L19.8499 10.1464ZM18.7749 12.546C19.175 12.0225 19.4706 11.5814 19.6549 11.2238C19.7469 11.0455 19.82 10.8713 19.8607 10.7068C19.8995 10.5501 19.9232 10.3466 19.8495 10.1452L18.9104 10.4889C18.8859 10.4218 18.9071 10.3975 18.8901 10.4663C18.875 10.5272 18.8388 10.6247 18.7661 10.7655C18.6214 11.0463 18.3666 11.4335 17.9804 11.9387L18.7749 12.546ZM17.7994 13.8436C17.8046 13.8931 17.7688 13.8664 17.9545 13.6066C18.1305 13.3603 18.3816 13.0607 18.7749 12.546L17.9804 11.9388C17.6278 12.4002 17.3245 12.7683 17.1409 13.0251C16.9669 13.2685 16.7663 13.5805 16.8048 13.9478L17.7994 13.8436ZM18.3518 14.3806C18.1157 14.1656 17.9681 14.0314 17.8712 13.9228C17.7744 13.8142 17.795 13.8015 17.7994 13.8436L16.8048 13.9478C16.8336 14.2222 16.9843 14.4306 17.1247 14.5882C17.2652 14.7457 17.4619 14.9227 17.6785 15.12L18.3518 14.3806ZM19.711 15.9298C19.6214 15.7695 19.333 15.2748 18.352 14.3807L17.6784 15.1198C18.5878 15.9486 18.806 16.3602 18.8382 16.4177L19.711 15.9298ZM19.711 15.9302L19.711 15.9298L18.8382 16.4178C18.8403 16.4216 18.8509 16.4408 18.8612 16.4573L19.711 15.9302ZM18.8159 16.938C18.8461 17.4371 18.8463 17.4371 18.8465 17.437C18.8466 17.437 18.8468 17.437 18.8469 17.437C18.8472 17.437 18.8475 17.437 18.8478 17.437C18.8485 17.4369 18.8491 17.4369 18.8499 17.4368C18.8514 17.4367 18.8531 17.4366 18.8551 17.4365C18.859 17.4362 18.8638 17.4358 18.8695 17.4353C18.8807 17.4343 18.8954 17.4329 18.9129 17.4308C18.9476 17.4266 18.9949 17.4198 19.0495 17.4085C19.1523 17.3874 19.3105 17.3451 19.4624 17.2562C19.6161 17.1663 19.811 16.9986 19.8779 16.7166C19.944 16.4377 19.8563 16.1669 19.7121 15.9321L18.86 16.4555C18.9277 16.5657 18.8872 16.5605 18.9049 16.4859C18.9233 16.408 18.9742 16.3833 18.9574 16.3931C18.9388 16.404 18.9 16.4184 18.8484 16.429C18.8258 16.4336 18.8066 16.4364 18.7941 16.4379C18.7879 16.4386 18.7838 16.439 18.7822 16.4391C18.7814 16.4392 18.7812 16.4392 18.7818 16.4392C18.7821 16.4391 18.7825 16.4391 18.7832 16.4391C18.7835 16.439 18.7839 16.439 18.7843 16.439C18.7845 16.439 18.7847 16.439 18.785 16.4389C18.7851 16.4389 18.7853 16.4389 18.7853 16.4389C18.7855 16.4389 18.7857 16.4389 18.8159 16.938ZM17.113 17.4613L18.8227 17.4379L18.8091 16.438L17.0993 16.4614L17.113 17.4613ZM15.9766 17.1216C16.2832 17.3282 16.5666 17.4174 16.7879 17.4507C16.8975 17.4672 16.9899 17.4697 17.0603 17.467C17.0954 17.4657 17.1252 17.4631 17.1488 17.4602C17.1607 17.4588 17.171 17.4573 17.1798 17.4559C17.1842 17.4552 17.1883 17.4546 17.1919 17.4539C17.1937 17.4536 17.1954 17.4533 17.197 17.453C17.1978 17.4529 17.1986 17.4527 17.1993 17.4526C17.1997 17.4525 17.2001 17.4524 17.2004 17.4524C17.2006 17.4523 17.2009 17.4523 17.201 17.4523C17.2013 17.4522 17.2015 17.4522 17.1062 16.9613C17.0108 16.4705 17.011 16.4705 17.0113 16.4704C17.0114 16.4704 17.0117 16.4703 17.0118 16.4703C17.0122 16.4702 17.0125 16.4702 17.0128 16.4701C17.0135 16.47 17.0141 16.4699 17.0148 16.4698C17.016 16.4695 17.0172 16.4693 17.0183 16.4691C17.0205 16.4687 17.0224 16.4684 17.024 16.4682C17.0272 16.4677 17.0292 16.4674 17.0301 16.4673C17.0318 16.4671 17.0291 16.4675 17.0223 16.4677C17.0088 16.4683 16.9792 16.4682 16.9367 16.4618C16.8538 16.4494 16.7121 16.4113 16.5354 16.2923L15.9766 17.1216ZM15.146 16.325C15.3687 16.5756 15.6601 16.9085 15.9767 17.1217L16.5352 16.2922C16.3455 16.1644 16.1421 15.9405 15.8935 15.6607L15.146 16.325ZM14.6924 15.7795C14.6652 15.788 14.639 15.7901 14.6178 15.7886C14.5979 15.7872 14.5875 15.7831 14.5886 15.7835C14.5951 15.786 14.627 15.801 14.6876 15.8503C14.8131 15.9524 14.9571 16.1124 15.146 16.325L15.8935 15.6607C15.7225 15.4683 15.5205 15.2388 15.3188 15.0747C15.1408 14.9298 14.8 14.6986 14.395 14.8247L14.6924 15.7795ZM14.0817 16.458C14.5817 16.4509 14.5817 16.451 14.5817 16.4511C14.5817 16.4511 14.5817 16.4512 14.5817 16.4513C14.5817 16.4514 14.5817 16.4515 14.5817 16.4516C14.5817 16.4518 14.5817 16.452 14.5817 16.452C14.5817 16.4522 14.5817 16.4521 14.5817 16.4518C14.5817 16.4512 14.5817 16.4497 14.5817 16.4474C14.5817 16.4428 14.5817 16.4349 14.5819 16.4241C14.5823 16.4025 14.5834 16.3699 14.5859 16.3298C14.5911 16.2479 14.602 16.1422 14.6237 16.0372C14.6463 15.9279 14.6756 15.8446 14.7051 15.7928C14.7343 15.7415 14.737 15.7656 14.6927 15.7794L14.3948 14.8248C14.1123 14.913 13.9381 15.1187 13.836 15.2981C13.7342 15.477 13.6778 15.6734 13.6444 15.8345C13.6102 15.9999 13.5949 16.1553 13.5879 16.2669C13.5843 16.3235 13.5828 16.3708 13.5821 16.4048C13.5818 16.4219 13.5817 16.4358 13.5817 16.446C13.5817 16.4511 13.5817 16.4552 13.5817 16.4585C13.5817 16.4601 13.5817 16.4614 13.5817 16.4626C13.5817 16.4631 13.5817 16.4636 13.5817 16.4641C13.5818 16.4643 13.5818 16.4645 13.5818 16.4647C13.5818 16.4648 13.5818 16.4649 13.5818 16.4649C13.5818 16.4651 13.5818 16.4652 14.0817 16.458ZM14.3401 17.1319C14.4943 16.9692 14.5433 16.7709 14.5617 16.671C14.5726 16.6124 14.5774 16.561 14.5797 16.5239C14.5808 16.505 14.5814 16.4889 14.5816 16.4764C14.5817 16.4701 14.5817 16.4647 14.5817 16.4602C14.5817 16.4579 14.5817 16.4558 14.5817 16.454C14.5817 16.4531 14.5817 16.4523 14.5817 16.4515C14.5817 16.4511 14.5817 16.4507 14.5817 16.4504C14.5817 16.4502 14.5816 16.45 14.5816 16.4498C14.5816 16.4498 14.5816 16.4496 14.5816 16.4496C14.5816 16.4495 14.5816 16.4493 14.0817 16.458C13.5818 16.4667 13.5818 16.4666 13.5818 16.4665C13.5818 16.4665 13.5818 16.4663 13.5818 16.4663C13.5818 16.4661 13.5818 16.4659 13.5818 16.4658C13.5818 16.4655 13.5818 16.4652 13.5818 16.4649C13.5818 16.4643 13.5817 16.4638 13.5817 16.4633C13.5817 16.4623 13.5817 16.4615 13.5817 16.4608C13.5817 16.4595 13.5817 16.4588 13.5817 16.4586C13.5817 16.4584 13.5817 16.46 13.5815 16.4631C13.5811 16.47 13.5801 16.4797 13.5784 16.4894C13.5716 16.5259 13.5683 16.4926 13.6142 16.4441L14.3401 17.1319Z" fill="#CEB388"/>
</svg>
