<svg width="33" height="33" viewBox="0 0 33 33" fill="none" xmlns="http://www.w3.org/2000/svg">
<path fill-rule="evenodd" clip-rule="evenodd" d="M-0.000976562 16.5C-0.000976562 7.3873 7.38633 0 16.499 0C25.6117 0 32.999 7.3873 32.999 16.5C32.999 25.6127 25.6117 33 16.499 33C7.38633 33 -0.000976562 25.6127 -0.000976562 16.5Z" fill="#CEB388"/>
<path fill-rule="evenodd" clip-rule="evenodd" d="M24.9314 12.4255C24.729 11.648 24.1326 11.0357 23.3753 10.8279C22.0029 10.4502 16.4992 10.4502 16.4992 10.4502C16.4992 10.4502 10.9955 10.4502 9.62302 10.8279C8.86572 11.0357 8.26932 11.648 8.06692 12.4255C7.69922 13.8348 7.69922 16.7752 7.69922 16.7752C7.69922 16.7752 7.69922 19.7155 8.06692 21.1249C8.26932 21.9024 8.86572 22.5147 9.62302 22.7226C10.9955 23.1002 16.4992 23.1002 16.4992 23.1002C16.4992 23.1002 22.0029 23.1002 23.3753 22.7226C24.1326 22.5147 24.729 21.9024 24.9314 21.1249C25.2992 19.7155 25.2992 16.7752 25.2992 16.7752C25.2992 16.7752 25.2992 13.8348 24.9314 12.4255Z" fill="#F3F3F3"/>
<path fill-rule="evenodd" clip-rule="evenodd" d="M14.8491 19.7998V14.2998L19.2491 17.0499L14.8491 19.7998Z" stroke="#CEB388"/>
</svg>
