<svg width="26" height="26" viewBox="0 0 26 26" fill="none" xmlns="http://www.w3.org/2000/svg">
<path d="M19.1325 10.0366L18.6486 10.1626L18.6487 10.1629L19.1325 10.0366ZM18.0008 8.87469L17.8681 9.35677L17.8685 9.35687L18.0008 8.87469ZM19.1325 16.3634L18.6487 16.2372L18.6486 16.2375L19.1325 16.3634ZM18.0008 17.5254L17.8684 17.0433L17.8681 17.0434L18.0008 17.5254ZM7.9991 17.5254L8.13172 17.0433L8.13147 17.0433L7.9991 17.5254ZM6.86739 16.3634L7.35127 16.2375L7.3512 16.2372L6.86739 16.3634ZM6.86739 10.0366L7.3512 10.1629L7.35127 10.1626L6.86739 10.0366ZM7.9991 8.87469L8.13141 9.35687L8.13176 9.35678L7.9991 8.87469ZM1.5 13C1.5 6.64873 6.64873 1.5 13 1.5V0.5C6.09644 0.5 0.5 6.09644 0.5 13H1.5ZM13 24.5C6.64873 24.5 1.5 19.3513 1.5 13H0.5C0.5 19.9036 6.09644 25.5 13 25.5V24.5ZM24.5 13C24.5 19.3513 19.3513 24.5 13 24.5V25.5C19.9036 25.5 25.5 19.9036 25.5 13H24.5ZM13 1.5C19.3513 1.5 24.5 6.64873 24.5 13H25.5C25.5 6.09644 19.9036 0.5 13 0.5V1.5ZM19.6164 9.91069C19.4254 9.17705 18.8612 8.59231 18.1331 8.39252L17.8685 9.35687C18.2419 9.45934 18.5452 9.76522 18.6486 10.1626L19.6164 9.91069ZM19.4 13.2C19.9 13.2 19.9 13.2 19.9 13.1999C19.9 13.1999 19.9 13.1999 19.9 13.1998C19.9 13.1997 19.9 13.1996 19.9 13.1994C19.9 13.1991 19.9 13.1986 19.9 13.198C19.9 13.1968 19.9 13.1951 19.9 13.1929C19.9 13.1884 19.8999 13.182 19.8999 13.1737C19.8998 13.1571 19.8997 13.1329 19.8994 13.1018C19.8989 13.0398 19.8978 12.9504 19.8957 12.8402C19.8915 12.62 19.8829 12.3153 19.8659 11.9775C19.8326 11.3165 19.7645 10.4784 19.6163 9.91037L18.6487 10.1629C18.7679 10.6198 18.8337 11.3634 18.8672 12.0279C18.8836 12.3528 18.8918 12.6468 18.8959 12.8595C18.8979 12.9658 18.899 13.0516 18.8995 13.1105C18.8997 13.1399 18.8999 13.1626 18.8999 13.1778C18.8999 13.1854 18.9 13.1911 18.9 13.1949C18.9 13.1967 18.9 13.1981 18.9 13.199C18.9 13.1994 18.9 13.1997 18.9 13.1999C18.9 13.2 18.9 13.2 18.9 13.2001C18.9 13.2001 18.9 13.2001 18.9 13.2001C18.9 13.2001 18.9 13.2 19.4 13.2ZM19.6163 16.4897C19.7645 15.9217 19.8326 15.0835 19.8659 14.4225C19.8829 14.0847 19.8915 13.78 19.8957 13.5598C19.8978 13.4496 19.8989 13.3603 19.8994 13.2982C19.8997 13.2672 19.8998 13.243 19.8999 13.2263C19.8999 13.218 19.9 13.2116 19.9 13.2072C19.9 13.205 19.9 13.2033 19.9 13.2021C19.9 13.2015 19.9 13.201 19.9 13.2007C19.9 13.2005 19.9 13.2004 19.9 13.2002C19.9 13.2002 19.9 13.2001 19.9 13.2001C19.9 13.2001 19.9 13.2 19.4 13.2C18.9 13.2 18.9 13.2 18.9 13.2C18.9 13.2 18.9 13.2 18.9 13.2C18.9 13.2 18.9 13.2001 18.9 13.2002C18.9 13.2004 18.9 13.2007 18.9 13.2011C18.9 13.202 18.9 13.2033 18.9 13.2052C18.9 13.2089 18.8999 13.2146 18.8999 13.2222C18.8999 13.2374 18.8997 13.2602 18.8995 13.2896C18.899 13.3485 18.8979 13.4342 18.8959 13.5405C18.8918 13.7533 18.8836 14.0473 18.8672 14.3722C18.8337 15.0366 18.7679 15.7802 18.6487 16.2372L19.6163 16.4897ZM18.1331 18.0076C18.8612 17.8077 19.4254 17.223 19.6164 16.4894L18.6486 16.2375C18.5452 16.6348 18.2419 16.9407 17.8684 17.0433L18.1331 18.0076ZM13 17.8C13 18.3 13 18.3 13.0001 18.3C13.0001 18.3 13.0002 18.3 13.0002 18.3C13.0004 18.3 13.0006 18.3 13.0008 18.3C13.0014 18.3 13.0021 18.3 13.0032 18.3C13.0052 18.3 13.0081 18.3 13.012 18.3C13.0198 18.3 13.0313 18.3 13.0463 18.3C13.0763 18.2999 13.1202 18.2998 13.1763 18.2995C13.2886 18.2989 13.4499 18.2979 13.6465 18.2957C14.0394 18.2914 14.5744 18.2828 15.1413 18.2655C15.7074 18.2482 16.3096 18.2222 16.8357 18.1828C17.3474 18.1445 17.8307 18.0908 18.1334 18.0075L17.8681 17.0434C17.6718 17.0974 17.2805 17.1467 16.761 17.1856C16.2558 17.2234 15.6702 17.2489 15.1108 17.2659C14.5523 17.283 14.0242 17.2915 13.6355 17.2958C13.4412 17.2979 13.282 17.299 13.1715 17.2995C13.1163 17.2998 13.0732 17.2999 13.044 17.3C13.0295 17.3 13.0184 17.3 13.0109 17.3C13.0072 17.3 13.0044 17.3 13.0026 17.3C13.0017 17.3 13.001 17.3 13.0006 17.3C13.0003 17.3 13.0002 17.3 13.0001 17.3C13 17.3 13 17.3 13 17.3C13 17.3 13 17.3 13 17.8ZM7.86648 18.0075C8.16919 18.0908 8.65254 18.1445 9.16426 18.1828C9.69035 18.2222 10.2925 18.2482 10.8586 18.2655C11.4256 18.2828 11.9605 18.2914 12.3535 18.2957C12.5501 18.2979 12.7113 18.2989 12.8236 18.2995C12.8798 18.2998 12.9237 18.2999 12.9536 18.3C12.9686 18.3 12.9801 18.3 12.9879 18.3C12.9918 18.3 12.9948 18.3 12.9968 18.3C12.9978 18.3 12.9986 18.3 12.9991 18.3C12.9994 18.3 12.9996 18.3 12.9997 18.3C12.9998 18.3 12.9999 18.3 12.9999 18.3C12.9999 18.3 13 18.3 13 17.8C13 17.3 13 17.3 13 17.3C12.9999 17.3 12.9999 17.3 12.9999 17.3C12.9998 17.3 12.9996 17.3 12.9994 17.3C12.9989 17.3 12.9983 17.3 12.9973 17.3C12.9955 17.3 12.9927 17.3 12.989 17.3C12.9816 17.3 12.9705 17.3 12.9559 17.3C12.9268 17.2999 12.8837 17.2998 12.8284 17.2995C12.7179 17.299 12.5587 17.2979 12.3644 17.2958C11.9757 17.2915 11.4476 17.283 10.8891 17.2659C10.3298 17.2489 9.74409 17.2234 9.23894 17.1856C8.71941 17.1467 8.32811 17.0974 8.13172 17.0433L7.86648 18.0075ZM6.38352 16.4894C6.57448 17.223 7.1387 17.8077 7.86673 18.0076L8.13147 17.0433C7.75798 16.9407 7.4547 16.6348 7.35127 16.2375L6.38352 16.4894ZM6.59998 13.2C6.09998 13.2 6.09998 13.2001 6.09998 13.2001C6.09998 13.2001 6.09998 13.2002 6.09998 13.2002C6.09998 13.2004 6.09998 13.2005 6.09998 13.2007C6.09998 13.201 6.09998 13.2015 6.09998 13.2021C6.09998 13.2033 6.09998 13.205 6.09998 13.2072C6.09999 13.2116 6.10001 13.218 6.10005 13.2263C6.10011 13.243 6.10025 13.2672 6.10052 13.2982C6.10105 13.3603 6.10212 13.4496 6.10425 13.5598C6.1085 13.78 6.117 14.0847 6.13404 14.4225C6.16738 15.0835 6.2354 15.9216 6.38359 16.4896L7.3512 16.2372C7.23197 15.7802 7.16628 15.0366 7.13277 14.3722C7.11638 14.0473 7.10817 13.7533 7.10406 13.5405C7.10201 13.4342 7.10099 13.3485 7.10048 13.2896C7.10022 13.2602 7.1001 13.2374 7.10004 13.2222C7.10001 13.2146 7.09999 13.2089 7.09998 13.2052C7.09998 13.2033 7.09998 13.202 7.09998 13.2011C7.09998 13.2007 7.09998 13.2004 7.09998 13.2002C7.09998 13.2001 7.09998 13.2 7.09998 13.2C7.09998 13.2 7.09998 13.2 7.09998 13.2C7.09998 13.2 7.09998 13.2 6.59998 13.2ZM6.38359 9.91041C6.2354 10.4784 6.16738 11.3165 6.13404 11.9775C6.117 12.3153 6.1085 12.62 6.10425 12.8402C6.10212 12.9504 6.10105 13.0398 6.10052 13.1018C6.10025 13.1329 6.10011 13.1571 6.10005 13.1737C6.10001 13.182 6.09999 13.1884 6.09998 13.1929C6.09998 13.1951 6.09998 13.1968 6.09998 13.198C6.09998 13.1986 6.09998 13.1991 6.09998 13.1994C6.09998 13.1996 6.09998 13.1997 6.09998 13.1998C6.09998 13.1999 6.09998 13.1999 6.09998 13.1999C6.09998 13.2 6.09998 13.2 6.59998 13.2C7.09998 13.2 7.09998 13.2001 7.09998 13.2001C7.09998 13.2001 7.09998 13.2001 7.09998 13.2001C7.09998 13.2 7.09998 13.2 7.09998 13.1999C7.09998 13.1997 7.09998 13.1994 7.09998 13.199C7.09998 13.1981 7.09998 13.1967 7.09998 13.1949C7.09999 13.1911 7.10001 13.1854 7.10004 13.1778C7.1001 13.1626 7.10022 13.1399 7.10048 13.1105C7.10099 13.0516 7.10201 12.9658 7.10406 12.8595C7.10817 12.6467 7.11638 12.3528 7.13277 12.0279C7.16628 11.3634 7.23197 10.6198 7.3512 10.1629L6.38359 9.91041ZM7.86679 8.39252C7.1387 8.59231 6.57448 9.17705 6.38352 9.91069L7.35127 10.1626C7.45471 9.76522 7.75798 9.45934 8.13141 9.35687L7.86679 8.39252ZM13 8.60003C13 8.10003 12.9999 8.10003 12.9999 8.10003C12.9999 8.10003 12.9998 8.10003 12.9997 8.10003C12.9996 8.10003 12.9994 8.10003 12.9991 8.10003C12.9986 8.10003 12.9978 8.10003 12.9968 8.10003C12.9948 8.10003 12.9918 8.10003 12.9879 8.10004C12.9801 8.10005 12.9686 8.10006 12.9536 8.1001C12.9237 8.10017 12.8798 8.1003 12.8236 8.10057C12.7113 8.10111 12.55 8.10219 12.3535 8.10435C11.9605 8.10867 11.4256 8.1173 10.8586 8.13459C10.2925 8.15187 9.69034 8.17789 9.16425 8.2173C8.65253 8.25563 8.16917 8.30931 7.86645 8.39261L8.13176 9.35678C8.32813 9.30274 8.71942 9.25342 9.23895 9.21451C9.7441 9.17667 10.3298 9.15119 10.8891 9.13413C11.4476 9.11709 11.9757 9.10856 12.3644 9.10429C12.5587 9.10216 12.7179 9.10109 12.8284 9.10056C12.8837 9.10029 12.9268 9.10016 12.9559 9.10009C12.9705 9.10006 12.9816 9.10005 12.989 9.10004C12.9927 9.10003 12.9955 9.10003 12.9973 9.10003C12.9983 9.10003 12.9989 9.10003 12.9994 9.10003C12.9996 9.10003 12.9998 9.10003 12.9999 9.10003C12.9999 9.10003 12.9999 9.10003 13 9.10003C13 9.10003 13 9.10003 13 8.60003ZM18.1334 8.39261C17.8307 8.30931 17.3474 8.25563 16.8357 8.2173C16.3096 8.17789 15.7074 8.15187 15.1413 8.13459C14.5744 8.1173 14.0394 8.10867 13.6465 8.10435C13.4499 8.10219 13.2886 8.10111 13.1763 8.10057C13.1202 8.1003 13.0763 8.10017 13.0463 8.1001C13.0313 8.10006 13.0198 8.10005 13.012 8.10004C13.0081 8.10003 13.0052 8.10003 13.0032 8.10003C13.0021 8.10003 13.0014 8.10003 13.0008 8.10003C13.0006 8.10003 13.0004 8.10003 13.0002 8.10003C13.0002 8.10003 13.0001 8.10003 13.0001 8.10003C13 8.10003 13 8.10003 13 8.60003C13 9.10003 13 9.10003 13 9.10003C13 9.10003 13 9.10003 13.0001 9.10003C13.0002 9.10003 13.0003 9.10003 13.0006 9.10003C13.001 9.10003 13.0017 9.10003 13.0026 9.10003C13.0044 9.10003 13.0072 9.10003 13.0109 9.10004C13.0184 9.10005 13.0295 9.10006 13.044 9.10009C13.0732 9.10016 13.1163 9.10029 13.1715 9.10056C13.282 9.10109 13.4412 9.10216 13.6355 9.10429C14.0242 9.10856 14.5523 9.11709 15.1108 9.13413C15.6702 9.15119 16.2558 9.17667 16.761 9.21451C17.2805 9.25342 17.6718 9.30274 17.8681 9.35677L18.1334 8.39261Z" fill="#CEB388"/>
<path fill-rule="evenodd" clip-rule="evenodd" d="M11.7998 15.3999V11.3999L14.9998 13.4L11.7998 15.3999Z" stroke="#CEB388"/>
</svg>
